<svg version="1.1" id="Layer_1" xmlns="http://www.w3.org/2000/svg" xmlns:xlink="http://www.w3.org/1999/xlink" x="0px" y="0px"
	 width="100%" viewBox="0 0 1955 922" enable-background="new 0 0 1955 922" xml:space="preserve">
<path fill="#FFFFFF" opacity="1.000000" stroke="none" 
	d="
M1506.000000,923.000000 
	C1004.000061,923.000000 502.500183,923.000000 1.000202,923.000000 
	C1.000135,615.666809 1.000135,308.333618 1.000067,1.000326 
	C652.666443,1.000217 1304.332886,1.000217 1955.999512,1.000108 
	C1955.999634,308.333008 1955.999634,615.666016 1955.999756,922.999512 
	C1806.166626,923.000000 1656.333374,923.000000 1506.000000,923.000000 
M1509.999512,291.261261 
	C1509.018555,289.812134 1508.037476,288.363007 1507.017944,286.993347 
	C1507.017944,286.993347 1507.093262,286.947296 1506.999512,286.261292 
	C1506.018433,284.812164 1505.037476,283.363037 1504.017944,281.993286 
	C1504.017944,281.993286 1504.093262,281.947327 1504.001953,281.297150 
	C1503.348633,280.493347 1502.695435,279.689545 1501.991821,278.236450 
	C1501.033081,277.143982 1500.074463,276.051483 1499.007568,274.308655 
	C1498.352417,273.501007 1497.697266,272.693359 1496.986328,271.185120 
	C1494.000244,267.299316 1491.192627,263.259277 1487.994263,259.556702 
	C1478.400879,248.450897 1468.852051,237.295883 1458.922974,226.493500 
	C1443.785767,210.024857 1428.837769,193.331848 1412.864624,177.699417 
	C1401.620239,166.694855 1389.121704,156.884613 1376.625366,147.265793 
	C1354.441772,130.190491 1331.924561,113.543076 1309.377686,96.946625 
	C1289.242554,82.125443 1267.212402,70.682747 1243.989990,61.516884 
	C1228.813721,55.526848 1213.721069,49.284100 1198.344604,43.851967 
	C1179.435913,37.172012 1160.417725,30.716360 1141.178589,25.079411 
	C1117.918579,18.264322 1093.994263,14.489925 1069.892822,12.006876 
	C1052.725464,10.238220 1035.566284,7.783945 1018.352295,7.232779 
	C998.114136,6.584783 977.803223,7.259170 957.557373,8.135303 
	C943.952820,8.724040 930.277222,9.898415 916.866577,12.180982 
	C899.683716,15.105597 882.484497,18.532974 865.748901,23.334826 
	C844.596069,29.404036 823.798767,36.781063 803.038269,44.130989 
	C776.900391,53.384602 751.726379,65.012398 728.191833,79.606766 
	C696.107727,99.502937 664.475342,120.152519 633.062378,141.098557 
	C604.699951,160.010483 579.404785,182.559525 556.466431,207.861359 
	C540.759033,225.187256 526.055542,243.227142 512.256165,262.096985 
	C492.994965,288.435455 476.052216,316.188232 460.668945,344.898712 
	C452.390533,360.349060 444.754303,376.149414 437.058472,391.904297 
	C428.285675,409.864075 421.923187,428.756073 417.100494,448.093048 
	C412.327545,467.230621 408.187531,486.534912 404.187653,505.852570 
	C402.335785,514.796265 401.476105,523.945374 399.776886,533.731384 
	C398.480682,542.280457 397.184448,550.829590 395.888245,559.378662 
	C396.428650,559.490540 396.969055,559.602417 397.509460,559.714294 
	C399.617462,550.809326 401.725464,541.904419 403.968353,532.144714 
	C404.185638,530.355774 404.131042,528.481445 404.661682,526.790833 
	C410.959595,506.726166 416.585571,486.406555 423.907501,466.718964 
	C432.266541,444.242584 441.340607,421.948456 451.616119,400.292664 
	C461.361176,379.754761 472.742279,359.962677 484.011810,340.189056 
	C491.793182,326.535858 500.260712,313.237305 509.050659,300.204498 
	C520.023315,283.935364 531.641296,268.101501 542.981995,252.080627 
	C549.164795,243.346344 555.232971,234.496719 566.949097,232.477066 
	C567.983765,232.298721 568.995789,231.423401 569.816650,230.656097 
	C580.832458,220.359314 591.661987,209.857834 602.847717,199.750122 
	C612.129395,191.362930 621.374390,182.821426 631.433594,175.435028 
	C646.571533,164.319443 662.319214,154.021194 677.996277,143.660889 
	C682.768494,140.507126 688.161987,138.293427 693.270935,135.649185 
	C693.484497,136.072037 693.698120,136.494888 693.911743,136.917740 
	C691.667542,138.123260 689.120056,138.973251 687.225891,140.589066 
	C667.474548,157.437881 647.420471,173.965378 628.300842,191.508926 
	C616.239197,202.576340 605.186584,214.847168 594.575073,227.337479 
	C590.628174,231.983170 583.269104,235.282135 584.700928,243.511108 
	C584.773926,243.931152 583.913818,244.512558 583.489746,245.020172 
	C569.999878,261.169800 555.992920,276.919861 543.135864,293.558441 
	C521.182190,321.969238 501.921417,352.117828 486.955994,384.910461 
	C475.777496,409.404938 467.228455,434.656372 463.089111,461.307129 
	C462.454926,465.390106 462.318115,469.550323 461.951294,473.674835 
	C462.396606,473.790527 462.841919,473.906219 463.287231,474.021912 
	C463.861816,472.816162 464.485840,471.631195 465.003510,470.401459 
	C472.289215,453.095032 479.460449,435.739471 486.882721,418.491913 
	C489.999084,411.250305 493.639282,404.234131 497.652161,397.023132 
	C498.063690,397.029877 498.475220,397.036621 498.951904,397.803467 
	C497.597290,401.854156 496.242645,405.904877 494.259155,410.354156 
	C489.919556,424.258026 485.579926,438.161896 481.240326,452.065765 
	C481.671600,452.189087 482.102844,452.312378 482.534119,452.435669 
	C487.967255,438.623505 493.400391,424.811310 499.165710,410.343658 
	C510.357910,389.820770 520.852173,368.877289 532.906555,348.873962 
	C550.776489,319.220154 573.596802,293.472992 599.261841,270.287933 
	C613.583069,257.350555 627.804565,244.266022 642.697266,232.008682 
	C657.102783,220.152298 672.161072,209.067154 687.200500,198.007599 
	C713.317261,178.802155 742.003662,164.163193 771.553650,151.048859 
	C797.248291,139.645569 823.360168,129.435287 850.285461,121.295700 
	C874.431030,113.996437 898.940613,108.337090 924.066101,106.145706 
	C943.315369,104.466835 962.661011,103.633781 981.982178,103.128883 
	C995.067139,102.786957 1008.190674,103.507492 1021.284546,104.051544 
	C1031.333618,104.469078 1041.447998,104.754578 1051.382935,106.160645 
	C1069.176025,108.678856 1086.925293,111.639061 1104.567627,115.060715 
	C1133.699707,120.710739 1161.528198,130.554016 1188.466797,142.868866 
	C1218.036743,156.386581 1245.957031,172.832352 1272.272705,191.895325 
	C1288.981079,203.998734 1305.030029,217.012924 1321.754272,229.093323 
	C1337.216919,240.262329 1350.043823,254.179840 1363.031372,267.842590 
	C1375.603516,281.068390 1387.144897,295.298157 1398.777344,309.385498 
	C1408.479980,321.135925 1418.246216,332.912842 1426.895874,345.430023 
	C1434.685547,356.702637 1440.610962,369.244965 1448.035889,380.791779 
	C1467.659790,411.309845 1487.610474,441.618530 1507.546997,471.934296 
	C1510.094849,475.808441 1513.331787,479.229370 1516.249390,482.860291 
	C1516.902710,482.580139 1517.556152,482.299957 1518.209473,482.019806 
	C1511.953003,458.160370 1505.696411,434.300964 1499.439941,410.441528 
	C1504.352539,415.635620 1509.001953,421.125000 1512.953613,427.077637 
	C1530.237305,453.113770 1543.299561,481.270050 1554.183228,510.483673 
	C1559.462036,524.652893 1564.653931,538.854553 1569.997070,553.745544 
	C1570.701538,555.125183 1571.405884,556.504822 1572.388184,558.428772 
	C1573.012573,556.083313 1573.423096,554.541260 1573.969482,552.073425 
	C1577.199951,505.527740 1569.902954,460.160675 1558.179199,414.826996 
	C1561.944580,415.890991 1565.170166,416.802399 1568.733887,418.115051 
	C1569.090454,418.217773 1569.447021,418.320496 1569.803589,418.423187 
	C1569.563477,417.925018 1569.323242,417.426819 1569.015747,416.204681 
	C1568.715698,415.122833 1568.415771,414.040985 1568.018311,412.174683 
	C1562.083984,390.930725 1552.424561,371.211395 1543.040894,351.387512 
	C1541.325684,347.763977 1539.065063,344.398529 1537.018066,340.993896 
	C1537.018066,340.993896 1537.092773,340.946167 1536.994751,340.218262 
	C1533.681885,334.116821 1530.369019,328.015411 1527.018066,321.993835 
	C1527.018066,321.993835 1527.092773,321.946198 1526.995850,321.225037 
	C1525.349365,318.454651 1523.702881,315.684265 1522.018066,312.993835 
	C1522.018066,312.993835 1522.092773,312.946198 1521.995728,312.225067 
	C1520.349243,309.454681 1518.702759,306.684296 1517.017944,303.993774 
	C1517.017944,303.993774 1517.092773,303.946350 1516.997192,303.238342 
	C1515.683594,301.130219 1514.369873,299.022064 1513.018066,296.993347 
	C1513.018066,296.993347 1513.093262,296.947296 1512.999512,296.261322 
	C1512.018433,294.812195 1511.037354,293.363068 1510.017944,291.993347 
	C1510.017944,291.993347 1510.093262,291.947296 1509.999512,291.261261 
M1001.023987,555.475220 
	C1018.040466,550.135010 1035.133789,545.025269 1052.048462,539.380127 
	C1065.050415,535.040894 1077.557861,529.382019 1088.384644,520.810120 
	C1096.601685,514.304504 1097.880371,505.509735 1087.057495,499.956451 
	C1072.712402,492.595978 1056.996460,490.697998 1041.479126,488.058380 
	C1027.962891,485.759155 1014.343140,484.075531 1000.806946,481.885712 
	C983.270874,479.048798 965.759705,476.051941 948.261169,472.990692 
	C929.656128,469.735840 910.981934,466.778442 892.517090,462.849304 
	C875.629333,459.255737 858.975037,454.114594 844.875244,443.801514 
	C831.997437,434.382111 828.602295,424.497559 844.496460,413.001099 
	C850.777527,408.457886 857.648315,404.596191 864.611511,401.154266 
	C887.747314,389.718201 912.748413,384.422211 937.929138,380.113739 
	C953.062805,377.524261 968.360718,375.860931 983.611145,373.997009 
	C998.410217,372.188263 1013.229736,370.523193 1028.065552,369.048859 
	C1037.400757,368.121216 1046.881592,368.294464 1056.121338,366.850128 
	C1072.191406,364.338074 1088.258179,361.507629 1104.060181,357.704987 
	C1111.830200,355.835114 1119.672974,352.786591 1125.360840,346.247894 
	C1127.145142,344.196808 1127.436279,342.895050 1125.437134,340.855011 
	C1119.873901,335.177856 1114.542480,329.274292 1109.024536,323.551788 
	C1098.070190,312.191406 1087.081177,300.864166 1076.053345,289.575043 
	C1059.669189,272.802582 1043.216553,256.097015 1026.841064,239.316147 
	C1021.403992,233.744415 1016.220215,227.923645 1010.733826,222.402405 
	C1002.206055,213.820618 993.518555,205.397568 984.815857,196.825577 
	C890.980591,290.665161 797.320862,384.329285 702.595886,479.058655 
	C690.091614,466.310669 677.784363,453.763580 665.127136,440.859650 
	C664.015076,442.134430 662.886902,443.592346 661.594177,444.885681 
	C599.741577,506.766357 537.894226,568.652283 475.928436,630.419434 
	C473.776855,632.564148 470.589813,634.158752 467.609131,634.901917 
	C450.750000,639.105347 433.777924,642.853699 416.900055,646.984802 
	C401.129669,650.844604 385.293671,654.529724 369.728577,659.113525 
	C345.760712,666.171753 321.987854,673.895142 298.166687,681.445007 
	C295.421295,682.315125 292.895386,683.877991 290.576233,684.973877 
	C300.248199,684.973877 309.868744,685.436218 319.428345,684.869751 
	C335.341492,683.926941 351.215546,682.323914 367.106171,681.000244 
	C375.300049,680.317749 383.506470,679.758789 391.685333,678.928772 
	C403.584930,677.721313 415.457611,676.249390 427.355255,675.021057 
	C438.133820,673.908203 448.964905,673.243042 459.710541,671.887085 
	C473.151459,670.191101 486.538391,668.053528 499.931122,665.992737 
	C517.021973,663.363098 534.126343,660.800720 551.166992,657.872314 
	C567.045532,655.143616 582.862854,652.049011 598.680237,648.977234 
	C616.088623,645.596558 633.505432,642.241028 650.846924,638.538879 
	C669.436890,634.570251 687.936340,630.178528 706.488403,626.030090 
	C730.116333,620.746521 753.767029,615.564819 777.389465,610.256897 
	C793.717651,606.588074 810.009399,602.757202 826.326599,599.038879 
	C853.574646,592.829712 880.939270,587.091797 908.053589,580.346436 
	C938.924377,572.666504 969.574646,564.099731 1001.023987,555.475220 
M1293.999878,441.500153 
	C1252.427246,399.926636 1210.854614,358.353149 1169.126221,316.623840 
	C1168.205933,317.433838 1167.563232,317.924591 1167.007568,318.499481 
	C1157.893188,327.931458 1149.190674,337.809845 1139.554321,346.673279 
	C1132.142334,353.490936 1124.052246,359.874634 1115.390869,364.966461 
	C1098.449829,374.925629 1079.032227,377.830963 1060.167236,381.901123 
	C1032.184326,387.938477 1003.994812,393.027435 976.044128,399.203033 
	C962.601501,402.173096 949.225647,405.920898 937.505127,413.815033 
	C927.183960,420.766693 930.802856,426.619995 937.611206,431.854828 
	C938.245667,432.342621 939.066956,432.582092 939.786133,432.965668 
	C950.548706,438.705719 962.210632,441.614716 974.124878,443.511200 
	C986.866516,445.539398 999.645142,447.380951 1012.451965,448.939758 
	C1023.205566,450.248718 1034.034790,450.922729 1044.809082,452.078949 
	C1059.139282,453.616730 1073.448364,455.351990 1087.766968,456.997986 
	C1102.410767,458.681396 1117.158203,459.746521 1131.674438,462.187866 
	C1151.881348,465.586304 1172.058105,469.413147 1191.986206,474.155487 
	C1215.727417,479.805206 1239.364868,486.260162 1258.965942,502.019440 
	C1270.932617,511.640656 1274.684937,523.836243 1267.365112,535.980103 
	C1259.408081,549.181274 1247.569336,558.586975 1234.254028,565.828125 
	C1220.086304,573.532776 1205.563843,580.629456 1190.932007,587.422241 
	C1179.451416,592.752075 1167.822266,597.993225 1155.814575,601.911133 
	C1123.882202,612.330261 1091.756836,622.168762 1059.615356,631.932434 
	C1038.810547,638.252319 1017.830261,643.993103 996.958435,650.095398 
	C993.072144,651.231689 989.327942,652.853516 985.518127,654.251221 
	C985.604675,654.834167 985.691284,655.417053 985.777832,656.000000 
	C1006.539490,656.000000 1027.302002,655.882507 1048.062500,656.043274 
	C1060.828857,656.142090 1073.591797,656.676453 1086.356689,656.996826 
	C1100.120850,657.342407 1113.884155,657.739258 1127.650269,657.983398 
	C1149.913330,658.378296 1172.182129,658.515320 1194.441528,659.047546 
	C1212.476562,659.478760 1230.503174,660.285461 1248.530151,661.010864 
	C1263.395752,661.609009 1278.258545,662.290466 1293.118652,663.013000 
	C1305.484619,663.614258 1317.844482,664.337830 1330.208008,664.991089 
	C1343.070312,665.670837 1355.934937,666.305786 1368.796143,667.007568 
	C1380.327637,667.636719 1391.855713,668.328735 1403.385132,668.995422 
	C1420.679443,669.995544 1437.970825,671.053162 1455.269043,671.982056 
	C1469.293701,672.735168 1483.327759,673.315308 1497.355591,674.011780 
	C1502.956543,674.289795 1508.557739,674.600220 1514.149048,675.023682 
	C1531.210205,676.315674 1548.267822,677.655151 1565.324341,679.006287 
	C1573.521484,679.655701 1581.724487,680.262329 1589.905029,681.084778 
	C1601.969971,682.297729 1614.019653,683.663025 1626.070923,685.008301 
	C1633.881104,685.880188 1641.667358,686.996521 1649.491577,687.701782 
	C1657.425659,688.416809 1665.393188,688.761047 1673.346069,689.267700 
	C1672.435303,687.416870 1671.292236,686.580261 1670.018555,686.068420 
	C1645.589233,676.251953 1620.631348,667.955750 1595.086548,661.656067 
	C1564.334473,654.072021 1533.452637,646.996521 1502.537354,640.102661 
	C1494.159180,638.234375 1487.317749,635.164734 1481.020142,628.817078 
	C1419.043945,566.349060 1356.723022,504.223053 1293.999878,441.500153 
M477.320129,840.999817 
	C480.624237,841.614380 481.081848,839.897278 481.056732,837.044312 
	C480.931915,822.880737 480.999969,808.715515 481.000031,794.550842 
	C481.000031,791.783997 481.000000,789.017151 481.000000,786.370667 
	C499.043060,786.370667 516.433411,786.370667 534.147888,786.370667 
	C534.147888,804.679504 534.147888,822.619873 534.147888,840.713989 
	C544.536926,840.713989 554.593445,840.713989 564.672363,840.713989 
	C564.672363,797.373962 564.672363,754.320679 564.672363,711.374268 
	C554.281982,711.374268 544.222961,711.374268 533.844849,711.374268 
	C533.844849,729.353516 533.844849,746.960571 533.844849,764.711426 
	C516.123840,764.711426 498.734802,764.711426 480.839569,764.711426 
	C480.839569,746.700806 480.839569,728.972412 480.839569,711.380737 
	C470.602051,711.380737 460.876007,711.380737 451.245667,711.380737 
	C451.245667,754.697327 451.245667,797.632751 451.245667,841.000000 
	C459.775085,841.000000 468.065430,841.000000 477.320129,840.999817 
M160.000000,741.500000 
	C160.000000,731.408752 160.000000,721.317566 160.000000,711.387573 
	C149.587402,711.387573 139.861359,711.387573 130.250122,711.387573 
	C130.250122,754.709473 130.250122,797.643311 130.250122,840.703735 
	C140.225540,840.703735 149.948486,840.703735 160.174835,840.703735 
	C160.174835,822.352417 160.174835,804.291504 160.174835,786.385315 
	C178.073959,786.385315 195.464020,786.385315 213.176178,786.385315 
	C213.176178,804.708496 213.176178,822.648132 213.176178,840.700867 
	C223.564713,840.700867 233.621063,840.700867 243.661575,840.700867 
	C243.661575,797.349121 243.661575,754.297363 243.661575,711.384521 
	C233.260315,711.384521 223.201141,711.384521 212.825348,711.384521 
	C212.825348,729.373596 212.825348,746.980042 212.825348,764.703125 
	C195.105545,764.703125 177.717102,764.703125 160.000000,764.703125 
	C160.000000,757.106934 160.000000,749.803467 160.000000,741.500000 
M786.933533,714.437927 
	C779.032532,713.291931 771.157349,711.443359 763.224976,711.152527 
	C748.641174,710.617798 734.023621,711.000000 719.259766,711.000000 
	C719.259766,754.531067 719.259766,797.563416 719.259766,840.700623 
	C729.240845,840.700623 738.959595,840.700623 749.167114,840.700623 
	C749.167114,824.683350 749.167114,808.958984 749.167114,793.000000 
	C751.472412,793.000000 753.327820,793.248230 755.093140,792.954651 
	C760.969238,791.977661 764.339905,795.077148 766.964172,799.741882 
	C772.547668,809.666931 778.148926,819.582764 783.844971,829.443420 
	C786.817139,834.588501 789.048950,840.817749 796.464600,840.955933 
	C805.756348,841.129150 815.053711,840.997620 824.530640,840.997620 
	C824.326904,840.297791 824.235779,839.832581 824.057068,839.403809 
	C823.744141,838.653076 823.474365,837.858032 823.019287,837.196716 
	C811.390686,820.301208 803.646179,800.761902 788.632874,786.231140 
	C804.827881,779.585144 815.872559,764.908325 813.084351,742.818909 
	C811.491211,730.197205 801.579041,718.831116 786.933533,714.437927 
M323.000000,750.500000 
	C323.000000,780.578491 323.000000,810.656982 323.000000,840.629456 
	C333.382080,840.629456 343.105255,840.629456 353.139557,840.629456 
	C353.139557,822.324158 353.139557,804.387268 353.139557,786.497864 
	C362.479065,784.740051 369.245300,786.631775 374.431213,795.473022 
	C382.574677,809.356262 391.864777,822.590210 401.150513,835.759827 
	C402.944977,838.304932 406.860779,840.552429 409.947357,840.764587 
	C419.369598,841.412170 428.864685,840.999634 439.016266,840.999634 
	C437.105408,837.806519 435.543732,835.006653 433.803894,832.322205 
	C425.750031,819.895569 417.969269,807.273926 409.450470,795.172729 
	C403.520203,786.748657 399.652100,776.379272 388.918610,771.826355 
	C396.121582,768.830383 430.766113,718.137146 435.352814,711.000793 
	C426.116058,711.000793 416.922424,710.497314 407.832275,711.247803 
	C404.179382,711.549438 399.537170,713.706665 397.433228,716.559326 
	C387.779572,729.648315 378.697418,743.172241 369.759521,756.769653 
	C365.688599,762.962891 360.441681,764.992920 352.976868,763.612610 
	C352.976868,746.187988 352.976868,728.792236 352.976868,711.302124 
	C342.758209,711.302124 333.037201,711.302124 323.000000,711.302124 
	C323.000000,724.234375 323.000000,736.867188 323.000000,750.500000 
M668.503357,739.002563 
	C665.185669,730.368713 661.938477,721.706238 658.454468,713.140076 
	C658.052917,712.152649 656.343384,711.113037 655.223328,711.093933 
	C645.734985,710.932007 636.242737,711.001404 626.649170,711.001404 
	C609.835266,754.321777 593.068726,797.520081 576.192993,840.999817 
	C584.348328,840.999817 592.012207,841.056274 599.674805,840.980591 
	C605.058655,840.927429 608.249146,838.400940 610.043152,833.034424 
	C612.050964,827.028625 613.878784,820.953125 616.180237,815.062378 
	C616.705933,813.716919 618.839233,812.152893 620.253906,812.131958 
	C634.749878,811.917419 649.251526,811.917480 663.747498,812.131958 
	C665.161682,812.152893 667.274475,813.713257 667.822083,815.062683 
	C670.137817,820.769531 672.152527,826.615723 673.947083,832.511475 
	C675.304260,836.970459 677.855103,840.542664 682.434448,840.827759 
	C690.833313,841.350464 699.287964,840.976685 708.048279,840.976685 
	C700.542664,821.534973 693.248474,802.634583 685.949463,783.736206 
	C680.276978,769.049622 674.598389,754.365356 668.503357,739.002563 
M1045.497559,712.000000 
	C1031.411255,712.000000 1017.325073,712.000000 1003.248840,712.000000 
	C1003.248840,755.326904 1003.248840,797.920776 1003.248840,841.000000 
	C1005.111389,841.000000 1006.732056,841.000000 1008.352722,841.000000 
	C1022.516846,841.000000 1036.683838,840.821289 1050.844238,841.051270 
	C1064.473877,841.272522 1077.356323,838.532043 1088.962524,831.413086 
	C1099.234619,825.112427 1107.232422,816.541260 1112.065186,805.223145 
	C1117.492188,792.513428 1119.094971,779.509521 1117.108154,765.764954 
	C1114.125854,745.132507 1103.846069,729.930420 1085.603516,719.856995 
	C1073.335693,713.082764 1060.141357,711.578125 1045.497559,712.000000 
M1445.491699,795.993469 
	C1435.445068,783.248840 1425.349609,770.542297 1415.364624,757.749451 
	C1404.081909,743.294006 1392.925903,728.739685 1381.615967,714.305542 
	C1380.779663,713.238281 1379.174805,712.220215 1377.881958,712.160400 
	C1372.645386,711.918213 1367.390869,712.059814 1362.269287,712.059814 
	C1362.269287,755.390991 1362.269287,797.973328 1362.269287,840.667114 
	C1369.258179,840.667114 1375.973022,840.667114 1383.055786,840.667114 
	C1383.055786,811.117920 1383.055786,781.898865 1383.055786,752.679810 
	C1383.513794,752.342529 1383.971924,752.005249 1384.429932,751.667908 
	C1385.197876,752.901855 1385.879272,754.200684 1386.748169,755.358948 
	C1391.755127,762.032532 1396.718628,768.741516 1401.859131,775.311646 
	C1417.712769,795.575012 1433.567383,815.839111 1449.639526,835.928589 
	C1451.446777,838.187683 1454.471069,840.259521 1457.239502,840.781494 
	C1461.537964,841.592041 1466.101562,840.995605 1470.698975,840.995605 
	C1470.698975,797.781860 1470.698975,755.081726 1470.698975,712.364624 
	C1463.676025,712.364624 1456.959839,712.364624 1449.873047,712.364624 
	C1449.873047,741.932373 1449.873047,771.137573 1449.873047,801.235962 
	C1448.192139,799.180664 1447.099487,797.844666 1445.491699,795.993469 
M1816.003052,724.504822 
	C1812.030273,721.986938 1808.287964,718.952942 1804.037842,717.056396 
	C1794.598511,712.844116 1784.502808,711.810059 1774.208374,711.957092 
	C1761.612061,712.137085 1749.011230,712.000000 1736.307129,712.000000 
	C1736.307129,755.586609 1736.307129,798.608704 1736.307129,841.632996 
	C1744.333252,841.632996 1752.046631,841.632996 1760.115845,841.632996 
	C1760.115845,824.677368 1760.115845,808.085205 1760.115845,791.000488 
	C1763.916626,791.000488 1767.500854,790.423828 1770.782227,791.173157 
	C1773.687866,791.836731 1777.228394,793.299500 1778.811768,795.575745 
	C1787.200439,807.635925 1795.156006,820.002930 1803.059326,832.392639 
	C1806.602661,837.947266 1810.811279,842.039307 1817.868286,842.005127 
	C1824.003418,841.975342 1830.138794,841.998901 1837.445435,841.998901 
	C1824.121582,822.754395 1811.284912,804.213623 1798.648071,785.961365 
	C1805.535156,783.393738 1812.679077,779.101074 1818.054688,771.993958 
	C1826.884766,760.319275 1828.647827,738.336243 1816.003052,724.504822 
M58.427025,841.015076 
	C68.670105,843.230835 78.475899,841.681152 88.333046,838.382446 
	C107.533783,831.956848 119.254547,807.526733 113.290520,788.511902 
	C109.186928,775.428528 99.474007,769.383484 87.800949,765.037476 
	C79.758881,762.043335 71.591362,759.364380 63.653595,756.119690 
	C58.617550,754.061157 56.335964,750.097900 56.889622,744.293579 
	C57.341938,739.551636 59.683815,736.075012 63.728287,735.008179 
	C68.628868,733.715576 74.106590,732.956360 79.015518,733.807251 
	C84.105278,734.689331 88.848610,737.696655 93.678978,739.914856 
	C98.914894,742.319275 103.021523,741.330933 105.774879,736.518982 
	C108.247093,732.198364 110.458115,727.728333 112.897194,723.110596 
	C111.074600,721.634460 109.529930,720.131470 107.754738,718.985596 
	C93.795464,709.975281 78.593567,707.058594 62.274315,710.014465 
	C52.200527,711.839111 43.482231,716.186035 36.955978,724.295349 
	C29.607866,733.425903 26.879883,743.592896 28.863810,755.382935 
	C30.662050,766.069458 35.723667,774.394226 45.296612,778.852173 
	C54.953747,783.349365 65.330429,786.291504 75.355537,790.012817 
	C80.036301,791.750244 84.729874,794.002136 85.885963,799.342407 
	C88.270721,810.358582 81.771103,817.677185 70.437180,818.082886 
	C60.508995,818.438293 52.516991,814.002869 44.544094,809.084412 
	C39.978569,806.267944 34.984554,805.490173 31.409925,811.978333 
	C28.999617,816.353210 26.031361,820.420715 23.157440,824.865906 
	C32.903629,833.900085 44.527531,838.894470 58.427025,841.015076 
M1686.000000,725.505127 
	C1686.000000,746.836548 1686.140259,768.169373 1685.935059,789.498840 
	C1685.845825,798.761414 1683.541870,807.859253 1676.267334,813.928162 
	C1666.437622,822.128784 1654.618042,823.644104 1643.018921,818.284607 
	C1631.855469,813.126465 1626.968262,803.344299 1626.988037,791.072388 
	C1627.027954,766.241333 1627.000000,741.410156 1627.000000,716.579041 
	C1627.000000,714.817566 1627.000000,713.056091 1627.000000,711.406982 
	C1618.593140,711.406982 1610.872803,711.406982 1603.000000,711.406982 
	C1603.000000,736.473816 1602.940063,761.134277 1603.045532,785.794006 
	C1603.069458,791.392090 1603.091553,797.095642 1604.116577,802.562805 
	C1606.511841,815.339539 1613.377686,825.638245 1624.055908,832.918701 
	C1638.018188,842.438354 1654.000122,844.436829 1669.889160,840.699463 
	C1695.964966,834.565979 1708.756470,817.086365 1709.782227,791.354858 
	C1710.783813,766.230347 1710.000000,741.034729 1710.000000,715.870300 
	C1710.000000,714.298218 1710.000000,712.726135 1710.000000,711.304077 
	C1701.566040,711.304077 1693.965820,711.304077 1686.000000,711.304077 
	C1686.000000,715.902954 1686.000000,720.205750 1686.000000,725.505127 
M974.459045,804.950256 
	C968.080078,788.542664 961.696106,772.137024 955.323669,755.726929 
	C950.190613,742.508606 945.142578,729.256531 939.875183,716.092102 
	C939.013916,713.939575 938.919495,710.813171 935.031616,710.936401 
	C927.892334,711.162781 920.740723,711.000977 913.548645,711.000977 
	C896.579956,754.257690 879.697144,797.295471 862.552795,841.000000 
	C868.779907,841.000000 874.233582,840.848022 879.674866,841.042664 
	C885.152222,841.238647 888.230164,838.476379 889.992615,833.634277 
	C892.612305,826.436768 895.182312,819.217285 898.034729,812.111877 
	C898.553955,810.818542 900.313110,809.149658 901.516968,809.135864 
	C918.482605,808.941467 935.451172,809.003723 952.553650,809.003723 
	C955.439697,817.175781 958.118469,825.191528 961.123291,833.083130 
	C962.579346,836.907349 964.272888,840.942749 969.448853,840.984558 
	C975.744385,841.035400 982.040649,840.996643 988.778625,840.996643 
	C984.058594,828.951111 979.483887,817.276367 974.459045,804.950256 
M1900.500000,841.000000 
	C1911.585693,841.000000 1922.671265,841.000000 1933.749756,841.000000 
	C1933.749756,834.340271 1933.749756,828.408875 1933.749756,821.933350 
	C1914.457764,821.933350 1895.406860,821.933350 1876.369873,821.933350 
	C1876.369873,809.332581 1876.369873,797.284912 1876.369873,784.869263 
	C1891.667236,784.869263 1906.598755,784.869263 1921.682373,784.869263 
	C1921.682373,778.774841 1921.682373,773.060364 1921.682373,766.796631 
	C1906.318604,766.796631 1891.265259,766.796631 1876.262695,766.796631 
	C1876.262695,754.646545 1876.262695,743.050476 1876.262695,730.908813 
	C1895.567749,730.908813 1914.618530,730.908813 1933.614990,730.908813 
	C1933.614990,724.301208 1933.614990,718.250732 1933.614990,712.262329 
	C1906.305176,712.262329 1879.381348,712.262329 1852.308472,712.262329 
	C1852.308472,755.228027 1852.308472,797.930786 1852.308472,841.000000 
	C1868.242920,841.000000 1883.871460,841.000000 1900.500000,841.000000 
M1315.500000,822.000000 
	C1304.747437,822.000000 1293.994995,822.000000 1283.247559,822.000000 
	C1283.247559,809.343750 1283.247559,797.414734 1283.247559,784.936951 
	C1298.537842,784.936951 1313.591797,784.936951 1328.627686,784.936951 
	C1328.627686,778.661621 1328.627686,772.943848 1328.627686,766.864380 
	C1313.327881,766.864380 1298.396362,766.864380 1283.317261,766.864380 
	C1283.317261,754.773682 1283.317261,743.060303 1283.317261,730.799805 
	C1302.678833,730.799805 1321.729614,730.799805 1340.737183,730.799805 
	C1340.737183,724.314758 1340.737183,718.383179 1340.737183,712.316895 
	C1313.432007,712.316895 1286.390503,712.316895 1259.363037,712.316895 
	C1259.363037,755.337769 1259.363037,798.040833 1259.363037,840.759766 
	C1286.650391,840.759766 1313.574097,840.759766 1340.695312,840.759766 
	C1340.695312,834.468628 1340.695312,828.420776 1340.695312,822.000000 
	C1332.429688,822.000000 1324.464844,822.000000 1315.500000,822.000000 
M1197.522705,830.971069 
	C1199.971924,825.094421 1202.478027,819.240723 1204.860718,813.337219 
	C1216.032959,785.654968 1227.179199,757.962280 1238.315430,730.265564 
	C1240.667725,724.415161 1242.939209,718.532288 1245.509277,712.000000 
	C1239.255005,712.000000 1233.776978,712.288635 1228.343262,711.920593 
	C1222.663452,711.536011 1219.336304,713.986877 1217.409668,719.088074 
	C1207.615479,745.019836 1197.752075,770.925659 1187.980347,796.865906 
	C1186.131470,801.774170 1184.586792,806.797058 1182.573486,812.734985 
	C1181.510986,809.532959 1180.866455,807.360168 1180.075195,805.242188 
	C1173.570557,787.830627 1167.073853,770.415771 1160.502075,753.029480 
	C1156.178589,741.591187 1151.919434,730.121216 1147.205688,718.843262 
	C1146.116333,716.236816 1143.486206,712.721741 1141.223389,712.447937 
	C1134.291016,711.609070 1127.192627,712.142883 1119.421021,712.142883 
	C1137.023438,755.584900 1154.278076,798.168518 1171.570679,840.846069 
	C1178.895020,840.846069 1186.195190,840.846069 1193.483154,840.846069 
	C1194.719116,837.682129 1195.901367,834.655762 1197.522705,830.971069 
M1549.000000,834.429199 
	C1549.000000,800.350464 1549.000000,766.271729 1549.000000,731.816406 
	C1562.385498,731.816406 1574.989258,731.816406 1587.649414,731.816406 
	C1587.649414,725.044312 1587.649414,718.659607 1587.649414,712.240784 
	C1553.699219,712.240784 1520.100342,712.240784 1486.308350,712.240784 
	C1486.308350,718.867554 1486.308350,725.251587 1486.308350,732.191833 
	C1499.334473,732.191833 1512.058960,732.191833 1525.149414,732.191833 
	C1525.149414,769.016785 1525.149414,805.283875 1525.149414,841.666626 
	C1533.252441,841.666626 1540.969971,841.666626 1549.000000,841.666626 
	C1549.000000,839.359863 1549.000000,837.383972 1549.000000,834.429199 
M1466.500000,887.000000 
	C1361.100220,887.000000 1255.700562,887.000000 1150.338135,887.000000 
	C1150.338135,889.649231 1150.338135,891.702332 1150.338135,893.711304 
	C1353.683594,893.711304 1556.690918,893.711304 1759.661865,893.711304 
	C1759.661865,891.361633 1759.661865,889.306763 1759.661865,887.000000 
	C1662.049561,887.000000 1564.774780,887.000000 1466.500000,887.000000 
M543.500000,894.000000 
	C633.571106,894.000000 723.642212,894.000000 813.654724,894.000000 
	C813.654724,891.349426 813.654724,889.294495 813.654724,887.294556 
	C610.302551,887.294556 407.295166,887.294556 204.345276,887.294556 
	C204.345276,889.650452 204.345276,891.705444 204.345276,894.000000 
	C317.293091,894.000000 429.896545,894.000000 543.500000,894.000000 
M299.000000,800.500000 
	C299.000000,770.747009 299.000000,740.994080 299.000000,711.385742 
	C288.258575,711.385742 278.198975,711.385742 268.250671,711.385742 
	C268.250671,754.707397 268.250671,797.642822 268.250671,840.702637 
	C278.560272,840.702637 288.616943,840.702637 299.000000,840.702637 
	C299.000000,827.438721 299.000000,814.469360 299.000000,800.500000 
M872.351196,866.000000 
	C866.943481,866.000000 861.535767,866.000000 856.381226,866.000000 
	C856.381226,883.133423 856.381226,899.501343 856.381226,915.754517 
	C859.705139,915.754517 862.646118,915.754517 866.000000,915.754517 
	C866.000000,912.729309 866.000000,909.942688 866.000000,907.156067 
	C866.000000,904.216248 866.000000,901.276428 866.000000,897.999451 
	C869.346313,897.999451 872.166443,898.245972 874.929260,897.952637 
	C882.855774,897.111023 888.591797,894.396729 890.940674,887.894043 
	C895.273865,875.897522 886.594238,865.559631 872.351196,866.000000 
M1079.281006,915.728394 
	C1081.380493,915.728394 1083.479980,915.728394 1085.760010,915.728394 
	C1085.760010,898.842957 1085.760010,882.136963 1085.760010,865.277100 
	C1082.797729,865.277100 1080.079956,865.277100 1076.933838,865.277100 
	C1076.933838,871.276123 1076.933838,877.007019 1076.933838,881.735168 
	C1071.901489,881.735168 1067.259033,881.232300 1062.769897,881.848450 
	C1055.314819,882.871704 1051.566040,896.667908 1053.495850,904.159607 
	C1055.948242,913.680359 1059.764893,917.104004 1069.329102,915.847229 
	C1072.310181,915.455444 1075.055542,913.270630 1077.760498,911.977539 
	C1077.985718,912.729858 1078.346558,913.934631 1079.281006,915.728394 
M994.753784,915.983032 
	C1003.694824,915.983032 1012.635864,915.983032 1021.722168,915.983032 
	C1021.722168,913.132629 1021.722168,910.745544 1021.722168,907.864624 
	C1015.060303,907.864624 1008.666870,907.864624 1001.809326,907.864624 
	C1001.809326,893.649963 1001.809326,879.930115 1001.809326,866.384155 
	C998.597839,866.384155 995.876282,866.384155 993.007935,866.384155 
	C993.007935,882.401306 992.997131,898.034729 993.041748,913.667908 
	C993.043823,914.404419 993.538635,915.139526 994.753784,915.983032 
M917.051392,913.712463 
	C921.441101,902.992920 925.830750,892.273376 930.299255,881.361572 
	C921.679504,880.587097 921.715881,880.599792 918.997742,888.398132 
	C917.170288,893.641113 915.222229,898.841980 913.093384,904.708618 
	C912.094849,903.295227 911.385437,902.610840 911.059082,901.776672 
	C909.112244,896.799255 906.672607,891.917908 905.512817,886.753967 
	C904.060059,880.285522 900.106384,880.366028 894.732544,881.469666 
	C899.410950,893.091553 904.031555,904.569885 908.909790,916.688293 
	C911.704712,915.928162 914.295105,915.223633 917.051392,913.712463 
M950.892090,909.599426 
	C947.544006,910.942383 946.176208,909.004456 946.076782,906.202454 
	C945.866211,900.268433 946.012573,894.321716 946.012573,887.905762 
	C949.240234,887.905762 951.973633,887.905762 954.667847,887.905762 
	C954.667847,885.356262 954.667847,883.300110 954.667847,880.752441 
	C951.609741,880.752441 948.883301,880.752441 945.900879,880.752441 
	C945.900879,876.625732 945.900879,872.994812 945.900879,869.318542 
	C941.352844,868.210938 939.346008,870.808838 939.170593,874.271912 
	C938.929565,879.030396 937.328674,881.963440 932.444275,882.198669 
	C930.463562,887.750610 934.619263,887.802124 938.000000,888.345764 
	C938.000000,895.187927 937.864624,901.670471 938.088257,908.140564 
	C938.149658,909.917419 938.867249,912.014099 940.005920,913.346985 
	C943.415527,917.338135 951.239746,917.169373 956.770630,912.577698 
	C954.856079,911.306580 953.196594,910.204834 950.892090,909.599426 
M1038.548706,869.207642 
	C1034.171753,868.204529 1032.280396,870.989075 1032.161377,874.443237 
	C1031.993408,879.321167 1029.928955,881.876404 1025.410278,882.213684 
	C1023.497986,887.917419 1028.064331,887.594543 1031.000000,888.522888 
	C1031.000000,892.007751 1031.000000,895.161438 1031.000000,898.315125 
	C1031.000000,901.641174 1030.822144,904.980774 1031.074951,908.287476 
	C1031.201782,909.947632 1031.713135,911.879639 1032.740479,913.114929 
	C1036.277710,917.368347 1044.356079,917.271912 1048.892090,913.174927 
	C1047.067749,909.292419 1047.080933,909.596252 1043.142944,909.767029 
	C1041.819214,909.824402 1039.291748,907.972656 1039.224487,906.876343 
	C1038.842651,900.652893 1039.039551,894.393921 1039.039551,887.860962 
	C1042.331787,887.860962 1044.943970,887.860962 1047.742432,887.860962 
	C1047.742432,885.496765 1047.742432,883.441956 1047.742432,881.174194 
	C1044.765503,881.041077 1042.030029,880.918762 1038.934814,880.780334 
	C1038.934814,876.947144 1038.934814,873.480957 1038.548706,869.207642 
M1103.009277,908.527283 
	C1098.682007,905.867432 1094.522705,906.675476 1094.145264,910.449707 
	C1093.993164,911.970459 1094.742798,914.434692 1095.852295,915.026978 
	C1097.489868,915.901184 1100.658936,916.361084 1101.644775,915.410095 
	C1103.029419,914.074463 1103.009644,911.283020 1103.009277,908.527283 
M961.063843,913.139343 
	C963.269348,914.081421 965.415222,915.427734 967.709839,915.766174 
	C968.625122,915.901184 970.506775,913.973389 970.832886,912.699097 
	C971.557678,909.867676 970.567017,907.415344 967.189758,907.038025 
	C963.370789,906.611267 960.674561,907.756104 961.063843,913.139343 
z"/>
<path fill="#F59331" opacity="1.000000" stroke="none" 
	d="
M1569.885254,553.041626 
	C1564.653931,538.854553 1559.462036,524.652893 1554.183228,510.483673 
	C1543.299561,481.270050 1530.237305,453.113770 1512.953613,427.077637 
	C1509.001953,421.125000 1504.352539,415.635620 1499.439941,410.441528 
	C1505.696411,434.300964 1511.953003,458.160370 1518.209473,482.019806 
	C1517.556152,482.299957 1516.902710,482.580139 1516.249390,482.860291 
	C1513.331787,479.229370 1510.094849,475.808441 1507.546997,471.934296 
	C1487.610474,441.618530 1467.659790,411.309845 1448.035889,380.791779 
	C1440.610962,369.244965 1434.685547,356.702637 1426.895874,345.430023 
	C1418.246216,332.912842 1408.479980,321.135925 1398.777344,309.385498 
	C1387.144897,295.298157 1375.603516,281.068390 1363.031372,267.842590 
	C1350.043823,254.179840 1337.216919,240.262329 1321.754272,229.093323 
	C1305.030029,217.012924 1288.981079,203.998734 1272.272705,191.895325 
	C1245.957031,172.832352 1218.036743,156.386581 1188.466797,142.868866 
	C1161.528198,130.554016 1133.699707,120.710739 1104.567627,115.060715 
	C1086.925293,111.639061 1069.176025,108.678856 1051.382935,106.160645 
	C1041.447998,104.754578 1031.333618,104.469078 1021.284546,104.051544 
	C1008.190674,103.507492 995.067139,102.786957 981.982178,103.128883 
	C962.661011,103.633781 943.315369,104.466835 924.066101,106.145706 
	C898.940613,108.337090 874.431030,113.996437 850.285461,121.295700 
	C823.360168,129.435287 797.248291,139.645569 771.553650,151.048859 
	C742.003662,164.163193 713.317261,178.802155 687.200500,198.007599 
	C672.161072,209.067154 657.102783,220.152298 642.697266,232.008682 
	C627.804565,244.266022 613.583069,257.350555 599.261841,270.287933 
	C573.596802,293.472992 550.776489,319.220154 532.906555,348.873962 
	C520.852173,368.877289 510.357910,389.820770 498.653656,410.667664 
	C497.057068,410.646332 495.972565,410.300964 494.888031,409.955566 
	C496.242645,405.904877 497.597290,401.854156 499.279846,397.360046 
	C501.564026,392.621857 503.520294,388.327118 505.476532,384.032379 
	C504.646057,383.678589 503.815582,383.324829 502.985107,382.971039 
	C501.003845,387.685852 499.022614,392.400665 497.041351,397.115448 
	C493.639282,404.234131 489.999084,411.250305 486.882721,418.491913 
	C479.460449,435.739471 472.289215,453.095032 465.003510,470.401459 
	C464.485840,471.631195 463.861816,472.816162 463.287231,474.021912 
	C462.841919,473.906219 462.396606,473.790527 461.951294,473.674835 
	C462.318115,469.550323 462.454926,465.390106 463.089111,461.307129 
	C467.228455,434.656372 475.777496,409.404938 486.955994,384.910461 
	C501.921417,352.117828 521.182190,321.969238 543.135864,293.558441 
	C555.992920,276.919861 569.999878,261.169800 583.489746,245.020172 
	C583.913818,244.512558 584.773926,243.931152 584.700928,243.511108 
	C583.269104,235.282135 590.628174,231.983170 594.575073,227.337479 
	C605.186584,214.847168 616.239197,202.576340 628.300842,191.508926 
	C647.420471,173.965378 667.474548,157.437881 687.225891,140.589066 
	C689.120056,138.973251 691.667542,138.123260 693.911743,136.917740 
	C693.698120,136.494888 693.484497,136.072037 693.270935,135.649185 
	C688.161987,138.293427 682.768494,140.507126 677.996277,143.660889 
	C662.319214,154.021194 646.571533,164.319443 631.433594,175.435028 
	C621.374390,182.821426 612.129395,191.362930 602.847717,199.750122 
	C591.661987,209.857834 580.832458,220.359314 569.816650,230.656097 
	C568.995789,231.423401 567.983765,232.298721 566.949097,232.477066 
	C555.232971,234.496719 549.164795,243.346344 542.981995,252.080627 
	C531.641296,268.101501 520.023315,283.935364 509.050659,300.204498 
	C500.260712,313.237305 491.793182,326.535858 484.011810,340.189056 
	C472.742279,359.962677 461.361176,379.754761 451.616119,400.292664 
	C441.340607,421.948456 432.266541,444.242584 423.907501,466.718964 
	C416.585571,486.406555 410.959595,506.726166 404.661682,526.790833 
	C404.131042,528.481445 404.185638,530.355774 403.534241,532.572388 
	C402.122314,533.000427 401.144440,533.000854 400.166595,533.001343 
	C401.476105,523.945374 402.335785,514.796265 404.187653,505.852570 
	C408.187531,486.534912 412.327545,467.230621 417.100494,448.093048 
	C421.923187,428.756073 428.285675,409.864075 437.058472,391.904297 
	C444.754303,376.149414 452.390533,360.349060 460.668945,344.898712 
	C476.052216,316.188232 492.994965,288.435455 512.256165,262.096985 
	C526.055542,243.227142 540.759033,225.187256 556.466431,207.861359 
	C579.404785,182.559525 604.699951,160.010483 633.062378,141.098557 
	C664.475342,120.152519 696.107727,99.502937 728.191833,79.606766 
	C751.726379,65.012398 776.900391,53.384602 803.038269,44.130989 
	C823.798767,36.781063 844.596069,29.404036 865.748901,23.334826 
	C882.484497,18.532974 899.683716,15.105597 916.866577,12.180982 
	C930.277222,9.898415 943.952820,8.724040 957.557373,8.135303 
	C977.803223,7.259170 998.114136,6.584783 1018.352295,7.232779 
	C1035.566284,7.783945 1052.725464,10.238220 1069.892822,12.006876 
	C1093.994263,14.489925 1117.918579,18.264322 1141.178589,25.079411 
	C1160.417725,30.716360 1179.435913,37.172012 1198.344604,43.851967 
	C1213.721069,49.284100 1228.813721,55.526848 1243.989990,61.516884 
	C1267.212402,70.682747 1289.242554,82.125443 1309.377686,96.946625 
	C1331.924561,113.543076 1354.441772,130.190491 1376.625366,147.265793 
	C1389.121704,156.884613 1401.620239,166.694855 1412.864624,177.699417 
	C1428.837769,193.331848 1443.785767,210.024857 1458.922974,226.493500 
	C1468.852051,237.295883 1478.400879,248.450897 1487.994263,259.556702 
	C1491.192627,263.259277 1494.000244,267.299316 1497.007324,271.905945 
	C1497.724243,273.404175 1498.419922,274.181641 1499.115723,274.959045 
	C1500.074463,276.051483 1501.033081,277.143982 1502.009766,278.929596 
	C1502.716309,280.397614 1503.404785,281.172485 1504.093262,281.947327 
	C1504.093262,281.947327 1504.017944,281.993286 1504.024170,282.330231 
	C1505.051392,284.093872 1506.072388,285.520569 1507.093262,286.947266 
	C1507.093262,286.947296 1507.017944,286.993347 1507.024170,287.330261 
	C1508.051392,289.093872 1509.072388,290.520569 1510.093262,291.947266 
	C1510.093262,291.947296 1510.017944,291.993347 1510.024170,292.330261 
	C1511.051392,294.093872 1512.072388,295.520569 1513.093262,296.947266 
	C1513.093262,296.947296 1513.018066,296.993347 1513.025024,297.342865 
	C1513.866333,300.114197 1513.121948,303.561127 1517.092773,303.946350 
	C1517.092773,303.946350 1517.017944,303.993774 1517.025146,304.344116 
	C1518.147217,307.795807 1517.457886,312.003510 1522.092773,312.946198 
	C1522.092773,312.946198 1522.018066,312.993835 1522.025269,313.344147 
	C1523.147217,316.795807 1522.457886,321.003510 1527.092773,321.946198 
	C1527.092773,321.946198 1527.018066,321.993835 1527.025391,322.346375 
	C1529.429443,328.262024 1531.753418,333.859070 1534.304810,339.350403 
	C1534.673218,340.143005 1536.136230,340.426910 1537.092773,340.946167 
	C1537.092773,340.946167 1537.018066,340.993896 1537.025269,341.346436 
	C1538.031006,344.487762 1538.897583,347.332428 1540.049316,350.056488 
	C1548.425171,369.867828 1556.836670,389.664246 1565.322876,409.428467 
	C1565.894531,410.759644 1567.168457,411.789276 1568.115845,412.959106 
	C1568.415771,414.040985 1568.715698,415.122833 1568.855469,416.743652 
	C1568.595337,417.426331 1568.495483,417.570068 1568.395630,417.713806 
	C1565.170166,416.802399 1561.944580,415.890991 1558.179199,414.826996 
	C1569.902954,460.160675 1577.199951,505.527740 1573.506836,552.536743 
	C1571.991211,553.013916 1570.938110,553.027771 1569.885254,553.041626 
z"/>
<path fill="#1A77B9" opacity="1.000000" stroke="none" 
	d="
M1000.672363,555.696777 
	C969.574646,564.099731 938.924377,572.666504 908.053589,580.346436 
	C880.939270,587.091797 853.574646,592.829712 826.326599,599.038879 
	C810.009399,602.757202 793.717651,606.588074 777.389465,610.256897 
	C753.767029,615.564819 730.116333,620.746521 706.488403,626.030090 
	C687.936340,630.178528 669.436890,634.570251 650.846924,638.538879 
	C633.505432,642.241028 616.088623,645.596558 598.680237,648.977234 
	C582.862854,652.049011 567.045532,655.143616 551.166992,657.872314 
	C534.126343,660.800720 517.021973,663.363098 499.931122,665.992737 
	C486.538391,668.053528 473.151459,670.191101 459.710541,671.887085 
	C448.964905,673.243042 438.133820,673.908203 427.355255,675.021057 
	C415.457611,676.249390 403.584930,677.721313 391.685333,678.928772 
	C383.506470,679.758789 375.300049,680.317749 367.106171,681.000244 
	C351.215546,682.323914 335.341492,683.926941 319.428345,684.869751 
	C309.868744,685.436218 300.248199,684.973877 290.576233,684.973877 
	C292.895386,683.877991 295.421295,682.315125 298.166687,681.445007 
	C321.987854,673.895142 345.760712,666.171753 369.728577,659.113525 
	C385.293671,654.529724 401.129669,650.844604 416.900055,646.984802 
	C433.777924,642.853699 450.750000,639.105347 467.609131,634.901917 
	C470.589813,634.158752 473.776855,632.564148 475.928436,630.419434 
	C537.894226,568.652283 599.741577,506.766357 661.594177,444.885681 
	C662.886902,443.592346 664.015076,442.134430 665.127136,440.859650 
	C677.784363,453.763580 690.091614,466.310669 702.595886,479.058655 
	C797.320862,384.329285 890.980591,290.665161 984.815857,196.825577 
	C993.518555,205.397568 1002.206055,213.820618 1010.733826,222.402405 
	C1016.220215,227.923645 1021.403992,233.744415 1026.841064,239.316147 
	C1043.216553,256.097015 1059.669189,272.802582 1076.053345,289.575043 
	C1087.081177,300.864166 1098.070190,312.191406 1109.024536,323.551788 
	C1114.542480,329.274292 1119.873901,335.177856 1125.437134,340.855011 
	C1127.436279,342.895050 1127.145142,344.196808 1125.360840,346.247894 
	C1119.672974,352.786591 1111.830200,355.835114 1104.060181,357.704987 
	C1088.258179,361.507629 1072.191406,364.338074 1056.121338,366.850128 
	C1046.881592,368.294464 1037.400757,368.121216 1028.065552,369.048859 
	C1013.229736,370.523193 998.410217,372.188263 983.611145,373.997009 
	C968.360718,375.860931 953.062805,377.524261 937.929138,380.113739 
	C912.748413,384.422211 887.747314,389.718201 864.611511,401.154266 
	C857.648315,404.596191 850.777527,408.457886 844.496460,413.001099 
	C828.602295,424.497559 831.997437,434.382111 844.875244,443.801514 
	C858.975037,454.114594 875.629333,459.255737 892.517090,462.849304 
	C910.981934,466.778442 929.656128,469.735840 948.261169,472.990692 
	C965.759705,476.051941 983.270874,479.048798 1000.806946,481.885712 
	C1014.343140,484.075531 1027.962891,485.759155 1041.479126,488.058380 
	C1056.996460,490.697998 1072.712402,492.595978 1087.057495,499.956451 
	C1097.880371,505.509735 1096.601685,514.304504 1088.384644,520.810120 
	C1077.557861,529.382019 1065.050415,535.040894 1052.048462,539.380127 
	C1035.133789,545.025269 1018.040466,550.135010 1000.672363,555.696777 
M986.000000,265.321289 
	C986.000000,252.618347 986.000000,239.915421 986.000000,227.212479 
	C985.591003,227.062088 985.182007,226.911697 984.772949,226.761307 
	C982.577393,229.278198 980.444641,231.853394 978.175171,234.301758 
	C969.074768,244.119446 959.945435,253.910477 950.801514,263.687714 
	C936.006165,279.507629 921.224426,295.340515 906.370544,311.105286 
	C898.528687,319.427887 890.493652,327.568451 882.656555,335.895355 
	C879.908752,338.814911 877.491577,342.045624 874.923401,345.134277 
	C881.277222,342.085541 886.804626,338.005524 892.509705,334.191132 
	C922.114868,314.397217 951.747559,294.644257 981.425659,274.959900 
	C984.678528,272.802307 987.029297,270.508789 986.000000,265.321289 
M660.511414,520.992615 
	C661.115967,520.421631 661.633972,519.694397 662.338562,519.304016 
	C668.715332,515.770996 671.877991,511.021393 671.194031,503.129669 
	C670.372803,493.653534 671.000000,484.051910 671.000000,472.961548 
	C631.227966,518.790405 592.508911,563.405884 553.789795,608.021423 
	C554.124634,608.362305 554.459473,608.703186 554.794312,609.044067 
	C556.901245,607.169556 558.949646,605.223938 561.124878,603.432373 
	C572.130676,594.368103 583.214722,585.398438 594.183655,576.289917 
	C604.920593,567.374023 615.515015,558.286499 626.239807,549.355774 
	C637.451111,540.019897 648.743286,530.781067 660.511414,520.992615 
z"/>
<path fill="#1A77B9" opacity="1.000000" stroke="none" 
	d="
M1294.250000,441.750061 
	C1356.723022,504.223053 1419.043945,566.349060 1481.020142,628.817078 
	C1487.317749,635.164734 1494.159180,638.234375 1502.537354,640.102661 
	C1533.452637,646.996521 1564.334473,654.072021 1595.086548,661.656067 
	C1620.631348,667.955750 1645.589233,676.251953 1670.018555,686.068420 
	C1671.292236,686.580261 1672.435303,687.416870 1673.346069,689.267700 
	C1665.393188,688.761047 1657.425659,688.416809 1649.491577,687.701782 
	C1641.667358,686.996521 1633.881104,685.880188 1626.070923,685.008301 
	C1614.019653,683.663025 1601.969971,682.297729 1589.905029,681.084778 
	C1581.724487,680.262329 1573.521484,679.655701 1565.324341,679.006287 
	C1548.267822,677.655151 1531.210205,676.315674 1514.149048,675.023682 
	C1508.557739,674.600220 1502.956543,674.289795 1497.355591,674.011780 
	C1483.327759,673.315308 1469.293701,672.735168 1455.269043,671.982056 
	C1437.970825,671.053162 1420.679443,669.995544 1403.385132,668.995422 
	C1391.855713,668.328735 1380.327637,667.636719 1368.796143,667.007568 
	C1355.934937,666.305786 1343.070312,665.670837 1330.208008,664.991089 
	C1317.844482,664.337830 1305.484619,663.614258 1293.118652,663.013000 
	C1278.258545,662.290466 1263.395752,661.609009 1248.530151,661.010864 
	C1230.503174,660.285461 1212.476562,659.478760 1194.441528,659.047546 
	C1172.182129,658.515320 1149.913330,658.378296 1127.650269,657.983398 
	C1113.884155,657.739258 1100.120850,657.342407 1086.356689,656.996826 
	C1073.591797,656.676453 1060.828857,656.142090 1048.062500,656.043274 
	C1027.302002,655.882507 1006.539490,656.000000 985.777832,656.000000 
	C985.691284,655.417053 985.604675,654.834167 985.518127,654.251221 
	C989.327942,652.853516 993.072144,651.231689 996.958435,650.095398 
	C1017.830261,643.993103 1038.810547,638.252319 1059.615356,631.932434 
	C1091.756836,622.168762 1123.882202,612.330261 1155.814575,601.911133 
	C1167.822266,597.993225 1179.451416,592.752075 1190.932007,587.422241 
	C1205.563843,580.629456 1220.086304,573.532776 1234.254028,565.828125 
	C1247.569336,558.586975 1259.408081,549.181274 1267.365112,535.980103 
	C1274.684937,523.836243 1270.932617,511.640656 1258.965942,502.019440 
	C1239.364868,486.260162 1215.727417,479.805206 1191.986206,474.155487 
	C1172.058105,469.413147 1151.881348,465.586304 1131.674438,462.187866 
	C1117.158203,459.746521 1102.410767,458.681396 1087.766968,456.997986 
	C1073.448364,455.351990 1059.139282,453.616730 1044.809082,452.078949 
	C1034.034790,450.922729 1023.205566,450.248718 1012.451965,448.939758 
	C999.645142,447.380951 986.866516,445.539398 974.124878,443.511200 
	C962.210632,441.614716 950.548706,438.705719 939.786133,432.965668 
	C939.066956,432.582092 938.245667,432.342621 937.611206,431.854828 
	C930.802856,426.619995 927.183960,420.766693 937.505127,413.815033 
	C949.225647,405.920898 962.601501,402.173096 976.044128,399.203033 
	C1003.994812,393.027435 1032.184326,387.938477 1060.167236,381.901123 
	C1079.032227,377.830963 1098.449829,374.925629 1115.390869,364.966461 
	C1124.052246,359.874634 1132.142334,353.490936 1139.554321,346.673279 
	C1149.190674,337.809845 1157.893188,327.931458 1167.007568,318.499481 
	C1167.563232,317.924591 1168.205933,317.433838 1169.126221,316.623840 
	C1210.854614,358.353149 1252.427246,399.926636 1294.250000,441.750061 
M1165.970459,366.768311 
	C1165.970459,359.565002 1165.970459,352.361694 1165.970459,343.626099 
	C1145.644043,364.692535 1126.460693,384.574188 1107.277466,404.455872 
	C1107.528076,404.775482 1107.778687,405.095062 1108.029297,405.414673 
	C1127.279297,392.808014 1146.529419,380.201355 1165.970459,366.768311 
z"/>
<path fill="#1A77B9" opacity="1.000000" stroke="none" 
	d="
M476.837952,840.999878 
	C468.065430,841.000000 459.775085,841.000000 451.245667,841.000000 
	C451.245667,797.632751 451.245667,754.697327 451.245667,711.380737 
	C460.876007,711.380737 470.602051,711.380737 480.839569,711.380737 
	C480.839569,728.972412 480.839569,746.700806 480.839569,764.711426 
	C498.734802,764.711426 516.123840,764.711426 533.844849,764.711426 
	C533.844849,746.960571 533.844849,729.353516 533.844849,711.374268 
	C544.222961,711.374268 554.281982,711.374268 564.672363,711.374268 
	C564.672363,754.320679 564.672363,797.373962 564.672363,840.713989 
	C554.593445,840.713989 544.536926,840.713989 534.147888,840.713989 
	C534.147888,822.619873 534.147888,804.679504 534.147888,786.370667 
	C516.433411,786.370667 499.043060,786.370667 481.000000,786.370667 
	C481.000000,789.017151 481.000031,791.783997 481.000031,794.550842 
	C480.999969,808.715515 480.931915,822.880737 481.056732,837.044312 
	C481.081848,839.897278 480.624237,841.614380 476.837952,840.999878 
z"/>
<path fill="#1A77B9" opacity="1.000000" stroke="none" 
	d="
M160.000000,742.000000 
	C160.000000,749.803467 160.000000,757.106934 160.000000,764.703125 
	C177.717102,764.703125 195.105545,764.703125 212.825348,764.703125 
	C212.825348,746.980042 212.825348,729.373596 212.825348,711.384521 
	C223.201141,711.384521 233.260315,711.384521 243.661575,711.384521 
	C243.661575,754.297363 243.661575,797.349121 243.661575,840.700867 
	C233.621063,840.700867 223.564713,840.700867 213.176178,840.700867 
	C213.176178,822.648132 213.176178,804.708496 213.176178,786.385315 
	C195.464020,786.385315 178.073959,786.385315 160.174835,786.385315 
	C160.174835,804.291504 160.174835,822.352417 160.174835,840.703735 
	C149.948486,840.703735 140.225540,840.703735 130.250122,840.703735 
	C130.250122,797.643311 130.250122,754.709473 130.250122,711.387573 
	C139.861359,711.387573 149.587402,711.387573 160.000000,711.387573 
	C160.000000,721.317566 160.000000,731.408752 160.000000,742.000000 
z"/>
<path fill="#1A77B9" opacity="1.000000" stroke="none" 
	d="
M787.266724,714.672241 
	C801.579041,718.831116 811.491211,730.197205 813.084351,742.818909 
	C815.872559,764.908325 804.827881,779.585144 788.632874,786.231140 
	C803.646179,800.761902 811.390686,820.301208 823.019287,837.196716 
	C823.474365,837.858032 823.744141,838.653076 824.057068,839.403809 
	C824.235779,839.832581 824.326904,840.297791 824.530640,840.997620 
	C815.053711,840.997620 805.756348,841.129150 796.464600,840.955933 
	C789.048950,840.817749 786.817139,834.588501 783.844971,829.443420 
	C778.148926,819.582764 772.547668,809.666931 766.964172,799.741882 
	C764.339905,795.077148 760.969238,791.977661 755.093140,792.954651 
	C753.327820,793.248230 751.472412,793.000000 749.167114,793.000000 
	C749.167114,808.958984 749.167114,824.683350 749.167114,840.700623 
	C738.959595,840.700623 729.240845,840.700623 719.259766,840.700623 
	C719.259766,797.563416 719.259766,754.531067 719.259766,711.000000 
	C734.023621,711.000000 748.641174,710.617798 763.224976,711.152527 
	C771.157349,711.443359 779.032532,713.291931 787.266724,714.672241 
M777.371277,737.908569 
	C768.507141,732.391785 758.789490,734.301208 749.358887,734.054749 
	C749.358887,747.053650 749.358887,759.428162 749.358887,772.000000 
	C754.526672,772.000000 759.338257,772.000732 764.149841,771.999817 
	C773.175049,771.998169 779.687439,768.165955 782.571594,760.879517 
	C785.191956,754.259521 785.218018,743.830444 777.371277,737.908569 
z"/>
<path fill="#1A77B9" opacity="1.000000" stroke="none" 
	d="
M323.000000,750.000000 
	C323.000000,736.867188 323.000000,724.234375 323.000000,711.302124 
	C333.037201,711.302124 342.758209,711.302124 352.976868,711.302124 
	C352.976868,728.792236 352.976868,746.187988 352.976868,763.612610 
	C360.441681,764.992920 365.688599,762.962891 369.759521,756.769653 
	C378.697418,743.172241 387.779572,729.648315 397.433228,716.559326 
	C399.537170,713.706665 404.179382,711.549438 407.832275,711.247803 
	C416.922424,710.497314 426.116058,711.000793 435.352814,711.000793 
	C430.766113,718.137146 396.121582,768.830383 388.918610,771.826355 
	C399.652100,776.379272 403.520203,786.748657 409.450470,795.172729 
	C417.969269,807.273926 425.750031,819.895569 433.803894,832.322205 
	C435.543732,835.006653 437.105408,837.806519 439.016266,840.999634 
	C428.864685,840.999634 419.369598,841.412170 409.947357,840.764587 
	C406.860779,840.552429 402.944977,838.304932 401.150513,835.759827 
	C391.864777,822.590210 382.574677,809.356262 374.431213,795.473022 
	C369.245300,786.631775 362.479065,784.740051 353.139557,786.497864 
	C353.139557,804.387268 353.139557,822.324158 353.139557,840.629456 
	C343.105255,840.629456 333.382080,840.629456 323.000000,840.629456 
	C323.000000,810.656982 323.000000,780.578491 323.000000,750.000000 
z"/>
<path fill="#1A77B9" opacity="1.000000" stroke="none" 
	d="
M668.712891,739.341309 
	C674.598389,754.365356 680.276978,769.049622 685.949463,783.736206 
	C693.248474,802.634583 700.542664,821.534973 708.048279,840.976685 
	C699.287964,840.976685 690.833313,841.350464 682.434448,840.827759 
	C677.855103,840.542664 675.304260,836.970459 673.947083,832.511475 
	C672.152527,826.615723 670.137817,820.769531 667.822083,815.062683 
	C667.274475,813.713257 665.161682,812.152893 663.747498,812.131958 
	C649.251526,811.917480 634.749878,811.917419 620.253906,812.131958 
	C618.839233,812.152893 616.705933,813.716919 616.180237,815.062378 
	C613.878784,820.953125 612.050964,827.028625 610.043152,833.034424 
	C608.249146,838.400940 605.058655,840.927429 599.674805,840.980591 
	C592.012207,841.056274 584.348328,840.999817 576.192993,840.999817 
	C593.068726,797.520081 609.835266,754.321777 626.649170,711.001404 
	C636.242737,711.001404 645.734985,710.932007 655.223328,711.093933 
	C656.343384,711.113037 658.052917,712.152649 658.454468,713.140076 
	C661.938477,721.706238 665.185669,730.368713 668.712891,739.341309 
M657.919617,784.668701 
	C652.710815,769.598511 647.502075,754.528320 642.124390,738.969666 
	C636.226746,756.328674 630.437256,773.369324 624.510071,790.815430 
	C636.699707,790.815430 648.074280,790.815430 659.606750,790.815430 
	C659.027893,788.891418 658.513062,787.180237 657.919617,784.668701 
z"/>
<path fill="#F59331" opacity="1.000000" stroke="none" 
	d="
M1045.996704,712.000000 
	C1060.141357,711.578125 1073.335693,713.082764 1085.603516,719.856995 
	C1103.846069,729.930420 1114.125854,745.132507 1117.108154,765.764954 
	C1119.094971,779.509521 1117.492188,792.513428 1112.065186,805.223145 
	C1107.232422,816.541260 1099.234619,825.112427 1088.962524,831.413086 
	C1077.356323,838.532043 1064.473877,841.272522 1050.844238,841.051270 
	C1036.683838,840.821289 1022.516846,841.000000 1008.352722,841.000000 
	C1006.732056,841.000000 1005.111389,841.000000 1003.248840,841.000000 
	C1003.248840,797.920776 1003.248840,755.326904 1003.248840,712.000000 
	C1017.325073,712.000000 1031.411255,712.000000 1045.996704,712.000000 
M1027.000000,800.499878 
	C1027.000000,807.588013 1027.000000,814.676147 1027.000000,821.998657 
	C1037.534180,821.998657 1047.399658,822.648560 1057.140259,821.823975 
	C1067.827148,820.919312 1077.406982,816.848999 1084.085449,807.690430 
	C1094.632935,793.226196 1094.743530,777.181702 1091.257202,760.628235 
	C1088.163086,745.937744 1079.058716,735.731079 1064.766479,732.759766 
	C1052.667847,730.244446 1039.875854,731.064453 1027.000000,730.387939 
	C1027.000000,754.255615 1027.000000,776.877808 1027.000000,800.499878 
z"/>
<path fill="#F59331" opacity="1.000000" stroke="none" 
	d="
M1445.749268,796.251099 
	C1447.099487,797.844666 1448.192139,799.180664 1449.873047,801.235962 
	C1449.873047,771.137573 1449.873047,741.932373 1449.873047,712.364624 
	C1456.959839,712.364624 1463.676025,712.364624 1470.698975,712.364624 
	C1470.698975,755.081726 1470.698975,797.781860 1470.698975,840.995605 
	C1466.101562,840.995605 1461.537964,841.592041 1457.239502,840.781494 
	C1454.471069,840.259521 1451.446777,838.187683 1449.639526,835.928589 
	C1433.567383,815.839111 1417.712769,795.575012 1401.859131,775.311646 
	C1396.718628,768.741516 1391.755127,762.032532 1386.748169,755.358948 
	C1385.879272,754.200684 1385.197876,752.901855 1384.429932,751.667908 
	C1383.971924,752.005249 1383.513794,752.342529 1383.055786,752.679810 
	C1383.055786,781.898865 1383.055786,811.117920 1383.055786,840.667114 
	C1375.973022,840.667114 1369.258179,840.667114 1362.269287,840.667114 
	C1362.269287,797.973328 1362.269287,755.390991 1362.269287,712.059814 
	C1367.390869,712.059814 1372.645386,711.918213 1377.881958,712.160400 
	C1379.174805,712.220215 1380.779663,713.238281 1381.615967,714.305542 
	C1392.925903,728.739685 1404.081909,743.294006 1415.364624,757.749451 
	C1425.349609,770.542297 1435.445068,783.248840 1445.749268,796.251099 
z"/>
<path fill="#F59331" opacity="1.000000" stroke="none" 
	d="
M1816.262939,724.761536 
	C1828.647827,738.336243 1826.884766,760.319275 1818.054688,771.993958 
	C1812.679077,779.101074 1805.535156,783.393738 1798.648071,785.961365 
	C1811.284912,804.213623 1824.121582,822.754395 1837.445435,841.998901 
	C1830.138794,841.998901 1824.003418,841.975342 1817.868286,842.005127 
	C1810.811279,842.039307 1806.602661,837.947266 1803.059326,832.392639 
	C1795.156006,820.002930 1787.200439,807.635925 1778.811768,795.575745 
	C1777.228394,793.299500 1773.687866,791.836731 1770.782227,791.173157 
	C1767.500854,790.423828 1763.916626,791.000488 1760.115845,791.000488 
	C1760.115845,808.085205 1760.115845,824.677368 1760.115845,841.632996 
	C1752.046631,841.632996 1744.333252,841.632996 1736.307129,841.632996 
	C1736.307129,798.608704 1736.307129,755.586609 1736.307129,712.000000 
	C1749.011230,712.000000 1761.612061,712.137085 1774.208374,711.957092 
	C1784.502808,711.810059 1794.598511,712.844116 1804.037842,717.056396 
	C1808.287964,718.952942 1812.030273,721.986938 1816.262939,724.761536 
M1777.331543,731.000000 
	C1771.716431,731.000000 1766.101318,731.000000 1760.289551,731.000000 
	C1760.289551,745.522766 1760.289551,759.559204 1760.289551,773.992249 
	C1767.362549,773.992249 1774.237305,774.686707 1780.923340,773.857727 
	C1798.581299,771.668274 1806.327148,755.549561 1799.092896,741.630005 
	C1794.811157,733.391663 1786.789917,731.479553 1777.331543,731.000000 
z"/>
<path fill="#1A77B9" opacity="1.000000" stroke="none" 
	d="
M57.979908,841.008545 
	C44.527531,838.894470 32.903629,833.900085 23.157440,824.865906 
	C26.031361,820.420715 28.999617,816.353210 31.409925,811.978333 
	C34.984554,805.490173 39.978569,806.267944 44.544094,809.084412 
	C52.516991,814.002869 60.508995,818.438293 70.437180,818.082886 
	C81.771103,817.677185 88.270721,810.358582 85.885963,799.342407 
	C84.729874,794.002136 80.036301,791.750244 75.355537,790.012817 
	C65.330429,786.291504 54.953747,783.349365 45.296612,778.852173 
	C35.723667,774.394226 30.662050,766.069458 28.863810,755.382935 
	C26.879883,743.592896 29.607866,733.425903 36.955978,724.295349 
	C43.482231,716.186035 52.200527,711.839111 62.274315,710.014465 
	C78.593567,707.058594 93.795464,709.975281 107.754738,718.985596 
	C109.529930,720.131470 111.074600,721.634460 112.897194,723.110596 
	C110.458115,727.728333 108.247093,732.198364 105.774879,736.518982 
	C103.021523,741.330933 98.914894,742.319275 93.678978,739.914856 
	C88.848610,737.696655 84.105278,734.689331 79.015518,733.807251 
	C74.106590,732.956360 68.628868,733.715576 63.728287,735.008179 
	C59.683815,736.075012 57.341938,739.551636 56.889622,744.293579 
	C56.335964,750.097900 58.617550,754.061157 63.653595,756.119690 
	C71.591362,759.364380 79.758881,762.043335 87.800949,765.037476 
	C99.474007,769.383484 109.186928,775.428528 113.290520,788.511902 
	C119.254547,807.526733 107.533783,831.956848 88.333046,838.382446 
	C78.475899,841.681152 68.670105,843.230835 57.979908,841.008545 
z"/>
<path fill="#F59331" opacity="1.000000" stroke="none" 
	d="
M1686.000000,725.006836 
	C1686.000000,720.205750 1686.000000,715.902954 1686.000000,711.304077 
	C1693.965820,711.304077 1701.566040,711.304077 1710.000000,711.304077 
	C1710.000000,712.726135 1710.000000,714.298218 1710.000000,715.870300 
	C1710.000000,741.034729 1710.783813,766.230347 1709.782227,791.354858 
	C1708.756470,817.086365 1695.964966,834.565979 1669.889160,840.699463 
	C1654.000122,844.436829 1638.018188,842.438354 1624.055908,832.918701 
	C1613.377686,825.638245 1606.511841,815.339539 1604.116577,802.562805 
	C1603.091553,797.095642 1603.069458,791.392090 1603.045532,785.794006 
	C1602.940063,761.134277 1603.000000,736.473816 1603.000000,711.406982 
	C1610.872803,711.406982 1618.593140,711.406982 1627.000000,711.406982 
	C1627.000000,713.056091 1627.000000,714.817566 1627.000000,716.579041 
	C1627.000000,741.410156 1627.027954,766.241333 1626.988037,791.072388 
	C1626.968262,803.344299 1631.855469,813.126465 1643.018921,818.284607 
	C1654.618042,823.644104 1666.437622,822.128784 1676.267334,813.928162 
	C1683.541870,807.859253 1685.845825,798.761414 1685.935059,789.498840 
	C1686.140259,768.169373 1686.000000,746.836548 1686.000000,725.006836 
z"/>
<path fill="#F59331" opacity="1.000000" stroke="none" 
	d="
M974.684082,805.276001 
	C979.483887,817.276367 984.058594,828.951111 988.778625,840.996643 
	C982.040649,840.996643 975.744385,841.035400 969.448853,840.984558 
	C964.272888,840.942749 962.579346,836.907349 961.123291,833.083130 
	C958.118469,825.191528 955.439697,817.175781 952.553650,809.003723 
	C935.451172,809.003723 918.482605,808.941467 901.516968,809.135864 
	C900.313110,809.149658 898.553955,810.818542 898.034729,812.111877 
	C895.182312,819.217285 892.612305,826.436768 889.992615,833.634277 
	C888.230164,838.476379 885.152222,841.238647 879.674866,841.042664 
	C874.233582,840.848022 868.779907,841.000000 862.552795,841.000000 
	C879.697144,797.295471 896.579956,754.257690 913.548645,711.000977 
	C920.740723,711.000977 927.892334,711.162781 935.031616,710.936401 
	C938.919495,710.813171 939.013916,713.939575 939.875183,716.092102 
	C945.142578,729.256531 950.190613,742.508606 955.323669,755.726929 
	C961.696106,772.137024 968.080078,788.542664 974.684082,805.276001 
M921.095886,748.582642 
	C915.802673,762.937683 910.509399,777.292786 905.203674,791.681824 
	C918.973694,791.681824 932.344177,791.681824 946.084656,791.681824 
	C939.184326,772.654480 932.429688,754.028931 925.464233,734.822021 
	C924.043518,739.591309 922.802002,743.759094 921.095886,748.582642 
z"/>
<path fill="#F59331" opacity="1.000000" stroke="none" 
	d="
M1900.000000,841.000000 
	C1883.871460,841.000000 1868.242920,841.000000 1852.308472,841.000000 
	C1852.308472,797.930786 1852.308472,755.228027 1852.308472,712.262329 
	C1879.381348,712.262329 1906.305176,712.262329 1933.614990,712.262329 
	C1933.614990,718.250732 1933.614990,724.301208 1933.614990,730.908813 
	C1914.618530,730.908813 1895.567749,730.908813 1876.262695,730.908813 
	C1876.262695,743.050476 1876.262695,754.646545 1876.262695,766.796631 
	C1891.265259,766.796631 1906.318604,766.796631 1921.682373,766.796631 
	C1921.682373,773.060364 1921.682373,778.774841 1921.682373,784.869263 
	C1906.598755,784.869263 1891.667236,784.869263 1876.369873,784.869263 
	C1876.369873,797.284912 1876.369873,809.332581 1876.369873,821.933350 
	C1895.406860,821.933350 1914.457764,821.933350 1933.749756,821.933350 
	C1933.749756,828.408875 1933.749756,834.340271 1933.749756,841.000000 
	C1922.671265,841.000000 1911.585693,841.000000 1900.000000,841.000000 
z"/>
<path fill="#F59331" opacity="1.000000" stroke="none" 
	d="
M1316.000000,822.000000 
	C1324.464844,822.000000 1332.429688,822.000000 1340.695312,822.000000 
	C1340.695312,828.420776 1340.695312,834.468628 1340.695312,840.759766 
	C1313.574097,840.759766 1286.650391,840.759766 1259.363037,840.759766 
	C1259.363037,798.040833 1259.363037,755.337769 1259.363037,712.316895 
	C1286.390503,712.316895 1313.432007,712.316895 1340.737183,712.316895 
	C1340.737183,718.383179 1340.737183,724.314758 1340.737183,730.799805 
	C1321.729614,730.799805 1302.678833,730.799805 1283.317261,730.799805 
	C1283.317261,743.060303 1283.317261,754.773682 1283.317261,766.864380 
	C1298.396362,766.864380 1313.327881,766.864380 1328.627686,766.864380 
	C1328.627686,772.943848 1328.627686,778.661621 1328.627686,784.936951 
	C1313.591797,784.936951 1298.537842,784.936951 1283.247559,784.936951 
	C1283.247559,797.414734 1283.247559,809.343750 1283.247559,822.000000 
	C1293.994995,822.000000 1304.747437,822.000000 1316.000000,822.000000 
z"/>
<path fill="#F59331" opacity="1.000000" stroke="none" 
	d="
M1197.303223,831.300171 
	C1195.901367,834.655762 1194.719116,837.682129 1193.483154,840.846069 
	C1186.195190,840.846069 1178.895020,840.846069 1171.570679,840.846069 
	C1154.278076,798.168518 1137.023438,755.584900 1119.421021,712.142883 
	C1127.192627,712.142883 1134.291016,711.609070 1141.223389,712.447937 
	C1143.486206,712.721741 1146.116333,716.236816 1147.205688,718.843262 
	C1151.919434,730.121216 1156.178589,741.591187 1160.502075,753.029480 
	C1167.073853,770.415771 1173.570557,787.830627 1180.075195,805.242188 
	C1180.866455,807.360168 1181.510986,809.532959 1182.573486,812.734985 
	C1184.586792,806.797058 1186.131470,801.774170 1187.980347,796.865906 
	C1197.752075,770.925659 1207.615479,745.019836 1217.409668,719.088074 
	C1219.336304,713.986877 1222.663452,711.536011 1228.343262,711.920593 
	C1233.776978,712.288635 1239.255005,712.000000 1245.509277,712.000000 
	C1242.939209,718.532288 1240.667725,724.415161 1238.315430,730.265564 
	C1227.179199,757.962280 1216.032959,785.654968 1204.860718,813.337219 
	C1202.478027,819.240723 1199.971924,825.094421 1197.303223,831.300171 
z"/>
<path fill="#F59331" opacity="1.000000" stroke="none" 
	d="
M1549.000000,834.918701 
	C1549.000000,837.383972 1549.000000,839.359863 1549.000000,841.666626 
	C1540.969971,841.666626 1533.252441,841.666626 1525.149414,841.666626 
	C1525.149414,805.283875 1525.149414,769.016785 1525.149414,732.191833 
	C1512.058960,732.191833 1499.334473,732.191833 1486.308350,732.191833 
	C1486.308350,725.251587 1486.308350,718.867554 1486.308350,712.240784 
	C1520.100342,712.240784 1553.699219,712.240784 1587.649414,712.240784 
	C1587.649414,718.659607 1587.649414,725.044312 1587.649414,731.816406 
	C1574.989258,731.816406 1562.385498,731.816406 1549.000000,731.816406 
	C1549.000000,766.271729 1549.000000,800.350464 1549.000000,834.918701 
z"/>
<path fill="#1A77B9" opacity="1.000000" stroke="none" 
	d="
M1467.000000,887.000000 
	C1564.774780,887.000000 1662.049561,887.000000 1759.661865,887.000000 
	C1759.661865,889.306763 1759.661865,891.361633 1759.661865,893.711304 
	C1556.690918,893.711304 1353.683594,893.711304 1150.338135,893.711304 
	C1150.338135,891.702332 1150.338135,889.649231 1150.338135,887.000000 
	C1255.700562,887.000000 1361.100220,887.000000 1467.000000,887.000000 
z"/>
<path fill="#1A77B9" opacity="1.000000" stroke="none" 
	d="
M543.000000,894.000000 
	C429.896545,894.000000 317.293091,894.000000 204.345276,894.000000 
	C204.345276,891.705444 204.345276,889.650452 204.345276,887.294556 
	C407.295166,887.294556 610.302551,887.294556 813.654724,887.294556 
	C813.654724,889.294495 813.654724,891.349426 813.654724,894.000000 
	C723.642212,894.000000 633.571106,894.000000 543.000000,894.000000 
z"/>
<path fill="#1A77B9" opacity="1.000000" stroke="none" 
	d="
M299.000000,801.000000 
	C299.000000,814.469360 299.000000,827.438721 299.000000,840.702637 
	C288.616943,840.702637 278.560272,840.702637 268.250671,840.702637 
	C268.250671,797.642822 268.250671,754.707397 268.250671,711.385742 
	C278.198975,711.385742 288.258575,711.385742 299.000000,711.385742 
	C299.000000,740.994080 299.000000,770.747009 299.000000,801.000000 
z"/>
<path fill="#1A77B9" opacity="1.000000" stroke="none" 
	d="
M872.826416,866.000000 
	C886.594238,865.559631 895.273865,875.897522 890.940674,887.894043 
	C888.591797,894.396729 882.855774,897.111023 874.929260,897.952637 
	C872.166443,898.245972 869.346313,897.999451 866.000000,897.999451 
	C866.000000,901.276428 866.000000,904.216248 866.000000,907.156067 
	C866.000000,909.942688 866.000000,912.729309 866.000000,915.754517 
	C862.646118,915.754517 859.705139,915.754517 856.381226,915.754517 
	C856.381226,899.501343 856.381226,883.133423 856.381226,866.000000 
	C861.535767,866.000000 866.943481,866.000000 872.826416,866.000000 
M881.647278,877.167786 
	C877.627686,871.600525 871.901672,873.074890 866.244690,873.143066 
	C866.244690,879.181335 866.244690,884.880310 866.244690,890.526917 
	C879.181519,893.232422 884.967590,886.737122 881.647278,877.167786 
z"/>
<path fill="#1A77B9" opacity="1.000000" stroke="none" 
	d="
M1078.994141,915.433899 
	C1078.346558,913.934631 1077.985718,912.729858 1077.760498,911.977539 
	C1075.055542,913.270630 1072.310181,915.455444 1069.329102,915.847229 
	C1059.764893,917.104004 1055.948242,913.680359 1053.495850,904.159607 
	C1051.566040,896.667908 1055.314819,882.871704 1062.769897,881.848450 
	C1067.259033,881.232300 1071.901489,881.735168 1076.933838,881.735168 
	C1076.933838,877.007019 1076.933838,871.276123 1076.933838,865.277100 
	C1080.079956,865.277100 1082.797729,865.277100 1085.760010,865.277100 
	C1085.760010,882.136963 1085.760010,898.842957 1085.760010,915.728394 
	C1083.479980,915.728394 1081.380493,915.728394 1078.994141,915.433899 
M1064.487061,907.988220 
	C1067.164917,911.140686 1070.167847,910.067749 1073.402222,908.942810 
	C1076.780518,907.767761 1077.251465,905.450745 1077.040649,902.383972 
	C1076.848267,899.584229 1076.760864,896.735474 1077.055542,893.953674 
	C1077.502319,889.736572 1075.112915,887.831482 1071.637695,887.096924 
	C1067.900391,886.306824 1064.717041,887.849121 1063.353394,891.406677 
	C1061.321289,896.707947 1061.029785,902.164490 1064.487061,907.988220 
z"/>
<path fill="#1A77B9" opacity="1.000000" stroke="none" 
	d="
M994.278870,915.929138 
	C993.538635,915.139526 993.043823,914.404419 993.041748,913.667908 
	C992.997131,898.034729 993.007935,882.401306 993.007935,866.384155 
	C995.876282,866.384155 998.597839,866.384155 1001.809326,866.384155 
	C1001.809326,879.930115 1001.809326,893.649963 1001.809326,907.864624 
	C1008.666870,907.864624 1015.060303,907.864624 1021.722168,907.864624 
	C1021.722168,910.745544 1021.722168,913.132629 1021.722168,915.983032 
	C1012.635864,915.983032 1003.694824,915.983032 994.278870,915.929138 
z"/>
<path fill="#1A77B9" opacity="1.000000" stroke="none" 
	d="
M916.968445,914.115723 
	C914.295105,915.223633 911.704712,915.928162 908.909790,916.688293 
	C904.031555,904.569885 899.410950,893.091553 894.732544,881.469666 
	C900.106384,880.366028 904.060059,880.285522 905.512817,886.753967 
	C906.672607,891.917908 909.112244,896.799255 911.059082,901.776672 
	C911.385437,902.610840 912.094849,903.295227 913.093384,904.708618 
	C915.222229,898.841980 917.170288,893.641113 918.997742,888.398132 
	C921.715881,880.599792 921.679504,880.587097 930.299255,881.361572 
	C925.830750,892.273376 921.441101,902.992920 916.968445,914.115723 
z"/>
<path fill="#1A77B9" opacity="1.000000" stroke="none" 
	d="
M951.214600,909.351257 
	C953.196594,910.204834 954.856079,911.306580 956.770630,912.577698 
	C951.239746,917.169373 943.415527,917.338135 940.005920,913.346985 
	C938.867249,912.014099 938.149658,909.917419 938.088257,908.140564 
	C937.864624,901.670471 938.000000,895.187927 938.000000,888.345764 
	C934.619263,887.802124 930.463562,887.750610 932.444275,882.198669 
	C937.328674,881.963440 938.929565,879.030396 939.170593,874.271912 
	C939.346008,870.808838 941.352844,868.210938 945.900879,869.318542 
	C945.900879,872.994812 945.900879,876.625732 945.900879,880.752441 
	C948.883301,880.752441 951.609741,880.752441 954.667847,880.752441 
	C954.667847,883.300110 954.667847,885.356262 954.667847,887.905762 
	C951.973633,887.905762 949.240234,887.905762 946.012573,887.905762 
	C946.012573,894.321716 945.866211,900.268433 946.076782,906.202454 
	C946.176208,909.004456 947.544006,910.942383 951.214600,909.351257 
z"/>
<path fill="#1A77B9" opacity="1.000000" stroke="none" 
	d="
M1038.741699,869.611206 
	C1038.934814,873.480957 1038.934814,876.947144 1038.934814,880.780334 
	C1042.030029,880.918762 1044.765503,881.041077 1047.742432,881.174194 
	C1047.742432,883.441956 1047.742432,885.496765 1047.742432,887.860962 
	C1044.943970,887.860962 1042.331787,887.860962 1039.039551,887.860962 
	C1039.039551,894.393921 1038.842651,900.652893 1039.224487,906.876343 
	C1039.291748,907.972656 1041.819214,909.824402 1043.142944,909.767029 
	C1047.080933,909.596252 1047.067749,909.292419 1048.892090,913.174927 
	C1044.356079,917.271912 1036.277710,917.368347 1032.740479,913.114929 
	C1031.713135,911.879639 1031.201782,909.947632 1031.074951,908.287476 
	C1030.822144,904.980774 1031.000000,901.641174 1031.000000,898.315125 
	C1031.000000,895.161438 1031.000000,892.007751 1031.000000,888.522888 
	C1028.064331,887.594543 1023.497986,887.917419 1025.410278,882.213684 
	C1029.928955,881.876404 1031.993408,879.321167 1032.161377,874.443237 
	C1032.280396,870.989075 1034.171753,868.204529 1038.741699,869.611206 
z"/>
<path fill="#F59331" opacity="1.000000" stroke="none" 
	d="
M1568.067139,412.566895 
	C1567.168457,411.789276 1565.894531,410.759644 1565.322876,409.428467 
	C1556.836670,389.664246 1548.425171,369.867828 1540.049316,350.056488 
	C1538.897583,347.332428 1538.031006,344.487762 1537.044434,341.306458 
	C1539.065063,344.398529 1541.325684,347.763977 1543.040894,351.387512 
	C1552.424561,371.211395 1562.083984,390.930725 1568.067139,412.566895 
z"/>
<path fill="#F59331" opacity="1.000000" stroke="none" 
	d="
M494.573608,410.154846 
	C495.972565,410.300964 497.057068,410.646332 498.487579,410.995422 
	C493.400391,424.811310 487.967255,438.623505 482.534119,452.435669 
	C482.102844,452.312378 481.671600,452.189087 481.240326,452.065765 
	C485.579926,438.161896 489.919556,424.258026 494.573608,410.154846 
z"/>
<path fill="#F59331" opacity="1.000000" stroke="none" 
	d="
M399.971741,533.366333 
	C401.144440,533.000854 402.122314,533.000427 403.466797,532.999756 
	C401.725464,541.904419 399.617462,550.809326 397.509460,559.714294 
	C396.969055,559.602417 396.428650,559.490540 395.888245,559.378662 
	C397.184448,550.829590 398.480682,542.280457 399.971741,533.366333 
z"/>
<path fill="#1A77B9" opacity="1.000000" stroke="none" 
	d="
M1103.299927,908.820740 
	C1103.009644,911.283020 1103.029419,914.074463 1101.644775,915.410095 
	C1100.658936,916.361084 1097.489868,915.901184 1095.852295,915.026978 
	C1094.742798,914.434692 1093.993164,911.970459 1094.145264,910.449707 
	C1094.522705,906.675476 1098.682007,905.867432 1103.299927,908.820740 
z"/>
<path fill="#1A77B9" opacity="1.000000" stroke="none" 
	d="
M961.036560,912.728027 
	C960.674561,907.756104 963.370789,906.611267 967.189758,907.038025 
	C970.567017,907.415344 971.557678,909.867676 970.832886,912.699097 
	C970.506775,913.973389 968.625122,915.901184 967.709839,915.766174 
	C965.415222,915.427734 963.269348,914.081421 961.036560,912.728027 
z"/>
<path fill="#F59331" opacity="1.000000" stroke="none" 
	d="
M497.346741,397.069275 
	C499.022614,392.400665 501.003845,387.685852 502.985107,382.971039 
	C503.815582,383.324829 504.646057,383.678589 505.476532,384.032379 
	C503.520294,388.327118 501.564026,392.621857 499.247253,396.979980 
	C498.475220,397.036621 498.063690,397.029877 497.346741,397.069275 
z"/>
<path fill="#F59331" opacity="1.000000" stroke="none" 
	d="
M1537.043701,340.582214 
	C1536.136230,340.426910 1534.673218,340.143005 1534.304810,339.350403 
	C1531.753418,333.859070 1529.429443,328.262024 1527.044434,322.306458 
	C1530.369019,328.015411 1533.681885,334.116821 1537.043701,340.582214 
z"/>
<path fill="#F59331" opacity="1.000000" stroke="none" 
	d="
M1522.044189,312.585632 
	C1517.457886,312.003510 1518.147217,307.795807 1517.044434,304.304199 
	C1518.702759,306.684296 1520.349243,309.454681 1522.044189,312.585632 
z"/>
<path fill="#F59331" opacity="1.000000" stroke="none" 
	d="
M1527.044312,321.585632 
	C1522.457886,321.003510 1523.147217,316.795807 1522.044434,313.304169 
	C1523.702881,315.684265 1525.349365,318.454651 1527.044312,321.585632 
z"/>
<path fill="#F59331" opacity="1.000000" stroke="none" 
	d="
M1517.044922,303.592346 
	C1513.121948,303.561127 1513.866333,300.114197 1513.044189,297.303162 
	C1514.369873,299.022064 1515.683594,301.130219 1517.044922,303.592346 
z"/>
<path fill="#F59331" opacity="1.000000" stroke="none" 
	d="
M1569.941162,553.393616 
	C1570.938110,553.027771 1571.991211,553.013916 1573.438965,552.999634 
	C1573.423096,554.541260 1573.012573,556.083313 1572.388184,558.428772 
	C1571.405884,556.504822 1570.701538,555.125183 1569.941162,553.393616 
z"/>
<path fill="#F59331" opacity="1.000000" stroke="none" 
	d="
M1507.046387,286.604279 
	C1506.072388,285.520569 1505.051392,284.093872 1504.043457,282.290527 
	C1505.037476,283.363037 1506.018433,284.812164 1507.046387,286.604279 
z"/>
<path fill="#F59331" opacity="1.000000" stroke="none" 
	d="
M1513.046387,296.604309 
	C1512.072388,295.520569 1511.051392,294.093872 1510.043457,292.290558 
	C1511.037354,293.363068 1512.018433,294.812195 1513.046387,296.604309 
z"/>
<path fill="#F59331" opacity="1.000000" stroke="none" 
	d="
M1510.046387,291.604248 
	C1509.072388,290.520569 1508.051392,289.093872 1507.043457,287.290527 
	C1508.037476,288.363007 1509.018555,289.812134 1510.046387,291.604248 
z"/>
<path fill="#F59331" opacity="1.000000" stroke="none" 
	d="
M1499.061523,274.633850 
	C1498.419922,274.181641 1497.724243,273.404175 1497.035278,272.256226 
	C1497.697266,272.693359 1498.352417,273.501007 1499.061523,274.633850 
z"/>
<path fill="#F59331" opacity="1.000000" stroke="none" 
	d="
M1504.047607,281.622253 
	C1503.404785,281.172485 1502.716309,280.397614 1502.034912,279.254272 
	C1502.695435,279.689545 1503.348633,280.493347 1504.047607,281.622253 
z"/>
<path fill="#F59331" opacity="1.000000" stroke="none" 
	d="
M1568.889160,417.105621 
	C1569.323242,417.426819 1569.563477,417.925018 1569.803589,418.423218 
	C1569.447021,418.320496 1569.090454,418.217773 1568.564697,417.914429 
	C1568.495483,417.570068 1568.595337,417.426331 1568.889160,417.105621 
z"/>
<path fill="#FFFFFF" opacity="1.000000" stroke="none" 
	d="
M986.000000,265.791077 
	C987.029297,270.508789 984.678528,272.802307 981.425659,274.959900 
	C951.747559,294.644257 922.114868,314.397217 892.509705,334.191132 
	C886.804626,338.005524 881.277222,342.085541 874.923401,345.134277 
	C877.491577,342.045624 879.908752,338.814911 882.656555,335.895355 
	C890.493652,327.568451 898.528687,319.427887 906.370544,311.105286 
	C921.224426,295.340515 936.006165,279.507629 950.801514,263.687714 
	C959.945435,253.910477 969.074768,244.119446 978.175171,234.301758 
	C980.444641,231.853394 982.577393,229.278198 984.772949,226.761307 
	C985.182007,226.911697 985.591003,227.062088 986.000000,227.212479 
	C986.000000,239.915421 986.000000,252.618347 986.000000,265.791077 
z"/>
<path fill="#FFFFFF" opacity="1.000000" stroke="none" 
	d="
M660.255737,521.246216 
	C648.743286,530.781067 637.451111,540.019897 626.239807,549.355774 
	C615.515015,558.286499 604.920593,567.374023 594.183655,576.289917 
	C583.214722,585.398438 572.130676,594.368103 561.124878,603.432373 
	C558.949646,605.223938 556.901245,607.169556 554.794312,609.044067 
	C554.459473,608.703186 554.124634,608.362305 553.789795,608.021423 
	C592.508911,563.405884 631.227966,518.790405 671.000000,472.961548 
	C671.000000,484.051910 670.372803,493.653534 671.194031,503.129669 
	C671.877991,511.021393 668.715332,515.770996 662.338562,519.304016 
	C661.633972,519.694397 661.115967,520.421631 660.255737,521.246216 
z"/>
<path fill="#FFFFFF" opacity="1.000000" stroke="none" 
	d="
M1165.875000,367.181519 
	C1146.529419,380.201355 1127.279297,392.808014 1108.029297,405.414673 
	C1107.778687,405.095062 1107.528076,404.775482 1107.277466,404.455872 
	C1126.460693,384.574188 1145.644043,364.692535 1165.970459,343.626099 
	C1165.970459,352.361694 1165.970459,359.565002 1165.875000,367.181519 
z"/>
<path fill="#FFFFFF" opacity="1.000000" stroke="none" 
	d="
M777.651489,738.159424 
	C785.218018,743.830444 785.191956,754.259521 782.571594,760.879517 
	C779.687439,768.165955 773.175049,771.998169 764.149841,771.999817 
	C759.338257,772.000732 754.526672,772.000000 749.358887,772.000000 
	C749.358887,759.428162 749.358887,747.053650 749.358887,734.054749 
	C758.789490,734.301208 768.507141,732.391785 777.651489,738.159424 
z"/>
<path fill="#FFFFFF" opacity="1.000000" stroke="none" 
	d="
M657.958923,785.068848 
	C658.513062,787.180237 659.027893,788.891418 659.606750,790.815430 
	C648.074280,790.815430 636.699707,790.815430 624.510071,790.815430 
	C630.437256,773.369324 636.226746,756.328674 642.124390,738.969666 
	C647.502075,754.528320 652.710815,769.598511 657.958923,785.068848 
z"/>
<path fill="#FFFFFF" opacity="1.000000" stroke="none" 
	d="
M1027.000000,799.999939 
	C1027.000000,776.877808 1027.000000,754.255615 1027.000000,730.387939 
	C1039.875854,731.064453 1052.667847,730.244446 1064.766479,732.759766 
	C1079.058716,735.731079 1088.163086,745.937744 1091.257202,760.628235 
	C1094.743530,777.181702 1094.632935,793.226196 1084.085449,807.690430 
	C1077.406982,816.848999 1067.827148,820.919312 1057.140259,821.823975 
	C1047.399658,822.648560 1037.534180,821.998657 1027.000000,821.998657 
	C1027.000000,814.676147 1027.000000,807.588013 1027.000000,799.999939 
z"/>
<path fill="#FFFFFF" opacity="1.000000" stroke="none" 
	d="
M1777.806152,731.000000 
	C1786.789917,731.479553 1794.811157,733.391663 1799.092896,741.630005 
	C1806.327148,755.549561 1798.581299,771.668274 1780.923340,773.857727 
	C1774.237305,774.686707 1767.362549,773.992249 1760.289551,773.992249 
	C1760.289551,759.559204 1760.289551,745.522766 1760.289551,731.000000 
	C1766.101318,731.000000 1771.716431,731.000000 1777.806152,731.000000 
z"/>
<path fill="#FFFFFF" opacity="1.000000" stroke="none" 
	d="
M921.328186,748.254761 
	C922.802002,743.759094 924.043518,739.591309 925.464233,734.822021 
	C932.429688,754.028931 939.184326,772.654480 946.084656,791.681824 
	C932.344177,791.681824 918.973694,791.681824 905.203674,791.681824 
	C910.509399,777.292786 915.802673,762.937683 921.328186,748.254761 
z"/>
<path fill="#FFFFFF" opacity="1.000000" stroke="none" 
	d="
M881.798096,877.532349 
	C884.967590,886.737122 879.181519,893.232422 866.244690,890.526917 
	C866.244690,884.880310 866.244690,879.181335 866.244690,873.143066 
	C871.901672,873.074890 877.627686,871.600525 881.798096,877.532349 
z"/>
<path fill="#FFFFFF" opacity="1.000000" stroke="none" 
	d="
M1064.208252,907.691162 
	C1061.029785,902.164490 1061.321289,896.707947 1063.353394,891.406677 
	C1064.717041,887.849121 1067.900391,886.306824 1071.637695,887.096924 
	C1075.112915,887.831482 1077.502319,889.736572 1077.055542,893.953674 
	C1076.760864,896.735474 1076.848267,899.584229 1077.040649,902.383972 
	C1077.251465,905.450745 1076.780518,907.767761 1073.402222,908.942810 
	C1070.167847,910.067749 1067.164917,911.140686 1064.208252,907.691162 
z"/>
</svg>